<?xml version="1.0" encoding="UTF-8" standalone="no"?><!DOCTYPE svg PUBLIC "-//W3C//DTD SVG 1.1//EN" "http://www.w3.org/Graphics/SVG/1.1/DTD/svg11.dtd"><svg width="100%" height="100%" viewBox="0 0 808 308" version="1.1" xmlns="http://www.w3.org/2000/svg" xmlns:xlink="http://www.w3.org/1999/xlink" xml:space="preserve" xmlns:serif="http://www.serif.com/" style="fill-rule:evenodd;clip-rule:evenodd;stroke-linecap:round;stroke-linejoin:round;"><g id="Layer-1" serif:id="Layer 1"><g id="g18480"><g id="g10097"></g><g id="g8884"></g><g id="g10604"><path id="_4" serif:id="4" d="M403.572,283.302c0,-0 3.748,-0.188 5.573,-0.605c1.825,-0.416 3.616,-1.069 5.304,-1.879c1.688,-0.811 3.302,-1.794 4.766,-2.954c1.465,-1.16 2.79,-2.498 3.961,-3.961c1.172,-1.463 2.211,-3.076 3.022,-4.766c0.81,-1.69 1.396,-3.481 1.812,-5.303c0.417,-1.823 0.67,-3.69 0.672,-5.572c0.001,-1.882 -0.254,-3.805 -0.672,-5.639c-0.417,-1.834 -1.001,-3.624 -1.812,-5.303c-0.812,-1.679 -1.853,-3.236 -3.022,-4.699c-1.169,-1.463 -2.495,-2.857 -3.961,-4.028c-1.465,-1.171 -3.078,-2.143 -4.766,-2.954c-1.688,-0.81 -3.479,-1.463 -5.304,-1.88c-1.825,-0.416 -5.573,-0.604 -5.573,-0.604" style="fill:none;fill-rule:nonzero;stroke:#f1ac43;stroke-width:0.7px;"/><path id="_5" serif:id="5" d="M403.572,288.538c0,-0 4.5,-0.234 6.714,-0.672c2.215,-0.437 4.42,-1.08 6.512,-1.946c2.092,-0.866 4.11,-1.962 5.976,-3.223c1.866,-1.26 3.584,-2.7 5.169,-4.296c1.586,-1.595 3.048,-3.347 4.297,-5.236c1.249,-1.889 2.302,-3.951 3.155,-6.042c0.853,-2.091 1.519,-4.229 1.947,-6.444c0.429,-2.216 0.617,-4.522 0.605,-6.78c-0.013,-2.259 -0.222,-4.509 -0.672,-6.714c-0.45,-2.204 -1.127,-4.363 -2.014,-6.444c-0.887,-2.081 -2.018,-4.11 -3.29,-5.975c-1.271,-1.864 -2.689,-3.593 -4.296,-5.169c-1.608,-1.575 -3.405,-2.992 -5.304,-4.229c-1.9,-1.237 -6.043,-3.155 -6.043,-3.155" style="fill:none;fill-rule:nonzero;stroke:#f1ac43;stroke-width:0.7px;"/><path id="_859" serif:id="859" d="M436.402,210.398l-0.335,-1.745l-0.269,-1.746l-0.403,-1.812l-0.335,-1.813l-0.403,-1.879l-0.47,-1.813l-0.47,-1.88l-0.537,-1.879l-0.537,-1.88l-0.605,-1.88l-0.671,-1.879l-0.671,-1.813l-0.336,-0.872l-0.403,-0.94l-0.403,-0.873l-0.402,-0.873l-0.403,-0.872l-0.47,-0.873l-0.403,-0.806l-0.47,-0.872l-0.47,-0.806l-0.537,-0.805l-0.47,-0.806l-0.537,-0.738l-0.537,-0.806l-0.537,-0.738l-0.605,-0.672l-0.537,-0.738l-0.604,-0.671l-0.604,-0.672l-0.671,-0.671l-0.672,-0.604l-0.671,-0.604l-0.672,-0.537l-0.671,-0.605l-0.738,-0.537l-0.739,-0.47l-0.806,-0.469l-0.738,-0.47l-0.806,-0.403l-0.805,-0.403l-0.873,-0.336l-0.873,-0.335l-0.873,-0.269l-0.873,-0.268l-0.939,-0.269l-0.94,-0.201l-0.94,-0.134l-2.014,-0.269l-1.075,0l-1.007,-0.067" style="fill:none;fill-rule:nonzero;stroke:#f1ac43;stroke-width:1.5px;"/><path id="_860" serif:id="860" d="M403.572,209.727l1.276,0.067l1.276,0.067l1.275,0.134l1.343,0.134l1.276,0.269l1.275,0.268l0.671,0.202l0.672,0.134l0.604,0.202l0.604,0.201l0.672,0.201l1.208,0.537l0.604,0.269l0.605,0.268l0.537,0.269l0.604,0.268l0.537,0.336l0.604,0.336l0.537,0.335l0.537,0.403l0.538,0.336l0.47,0.403l0.469,0.402l0.538,0.403l0.47,0.47" style="fill:none;fill-rule:nonzero;stroke:#f1ac43;stroke-width:1.5px;"/><path id="_861" serif:id="861" d="M436.402,210.398l0.269,-0.336l0.268,-0.335l0.269,-0.336l0.201,-0.336l0.269,-0.402l0.134,-0.403l0.202,-0.403l0.201,-0.403l0.134,-0.402l0.135,-0.47l0.134,-0.403l0.067,-0.403l0.134,-0.47l0.067,-0.403l0.201,-0.872" style="fill:none;fill-rule:nonzero;stroke:#f1ac43;stroke-width:1.5px;"/><path id="_862" serif:id="862" d="M403.572,149.712l1.209,0l0.604,0.067l0.604,0l1.209,0.135l0.537,0.067l0.604,0.067l0.537,0.134l0.604,0.068l1.075,0.268l0.537,0.134l0.537,0.135l0.537,0.201l0.47,0.134l0.537,0.202l0.94,0.402l0.537,0.202l0.47,0.201l0.47,0.269l0.47,0.201l0.47,0.269l0.403,0.268l0.47,0.269l0.47,0.268l0.402,0.269l0.403,0.335l0.47,0.269l0.403,0.336l0.403,0.268l0.403,0.336l0.402,0.335l0.336,0.336l0.403,0.336l0.738,0.738l0.403,0.403l0.336,0.336l0.336,0.402l0.402,0.403l0.336,0.403l1.007,1.208l0.604,0.873l0.605,0.873l0.604,0.872l0.604,0.94l0.537,0.94l0.537,0.94l0.537,1.007l0.47,1.007l0.537,1.007l0.47,1.007l0.403,1.074l0.47,1.074l0.806,2.148l0.403,1.074l0.335,1.074l0.403,1.141l0.336,1.142l0.336,1.074l0.335,1.141l0.269,1.141l0.336,1.141l0.268,1.141l0.269,1.142l0.268,1.141l0.269,1.141l0.268,1.141l0.202,1.142l0.268,1.141l0.202,1.141l0.201,1.141l0.201,1.074l0.202,1.142l0.201,1.074l0.202,1.074l0.201,1.074l0.134,1.074l0.202,1.074l0.201,1.007l0.134,1.074l0.202,1.007" style="fill:none;fill-rule:nonzero;stroke:#f1ac43;stroke-width:1.5px;"/><path id="_863" serif:id="863" d="M435.664,206.236l-0.403,0.403l-0.336,0.403l-0.402,0.402l-0.336,0.403l-0.403,0.403l-0.403,0.336l-0.403,0.402l-0.805,0.672l-0.47,0.402l-0.403,0.336l-0.47,0.336l-0.47,0.335l-0.403,0.269l-0.47,0.336l-0.47,0.335l-0.47,0.269l-0.47,0.268l-0.47,0.269l-0.47,0.268l-0.537,0.202l-0.47,0.268l-0.537,0.202l-0.47,0.201l-0.537,0.201l-0.47,0.202l-0.537,0.134l-0.537,0.201l-0.47,0.135l-0.537,0.067l-0.537,0.134l-0.537,0.067" style="fill:none;fill-rule:nonzero;stroke:#f1ac43;stroke-width:0.7px;"/><path id="_864" serif:id="864" d="M422.774,216.641l0.939,-0.067l0.94,-0.134l0.94,-0.202l0.94,-0.201l0.94,-0.201l0.94,-0.336l0.873,-0.336l0.94,-0.335l0.47,-0.202l0.403,-0.201l0.47,-0.202l0.402,-0.268l0.403,-0.201l0.403,-0.269l0.403,-0.268l0.403,-0.269l0.402,-0.269l0.336,-0.335l0.403,-0.269l0.336,-0.335l0.335,-0.336l0.672,-0.671l0.335,-0.336" style="fill:none;fill-rule:nonzero;stroke:#f1ac43;stroke-width:1.5px;"/><path id="_865" serif:id="865" d="M418.947,212.882l-0.403,-0.269l-0.403,-0.201l-0.47,-0.269l-0.47,-0.201l-0.403,-0.268l-0.47,-0.202l-0.47,-0.201l-0.939,-0.403l-0.47,-0.134l-0.47,-0.202l-0.47,-0.134l-0.47,-0.201l-0.47,-0.134l-0.537,-0.135l-0.47,-0.134l-0.47,-0.134l-0.537,-0.067l-0.47,-0.135l-0.537,-0.134l-0.47,-0.067l-0.538,-0.067l-0.939,-0.134l-0.538,-0.068l-0.469,-0.067l-0.538,0l-0.47,-0.067l-0.537,0l-0.47,-0.067l-1.007,-0" style="fill:none;fill-rule:nonzero;stroke:#f1ac43;stroke-width:1.5px;"/><path id="_866" serif:id="866" d="M418.947,212.882l0.268,-0.134l0.269,-0.067l0.47,-0.269l0.537,-0.268l0.47,-0.269l0.47,-0.268l0.47,-0.336l0.47,-0.269l0.47,-0.335l0.403,-0.336l0.469,-0.336l0.47,-0.335l0.403,-0.403l0.403,-0.336l0.47,-0.402l0.403,-0.403l0.403,-0.336l0.403,-0.403l0.402,-0.402l0.403,-0.403l0.403,-0.403l0.403,-0.47l0.403,-0.403l0.335,-0.402l0.403,-0.47l0.739,-0.806l0.738,-0.873l0.739,-0.872l0.738,-0.873" style="fill:none;fill-rule:nonzero;stroke:#f1ac43;stroke-width:1.5px;"/><path id="_867" serif:id="867" d="M403.572,167.77l1.612,0l0.402,0.068l0.403,-0l0.403,0.067l0.403,0.067l0.336,0.067l0.805,0.134l0.336,0.068l0.403,0.067l0.335,0.067l0.403,0.134l0.336,0.067l0.336,0.135l0.402,0.067l0.672,0.268l0.671,0.269l0.336,0.134l0.671,0.268l0.336,0.135l0.336,0.201l0.335,0.134l0.269,0.202l0.336,0.134l0.335,0.201l0.269,0.202l0.335,0.201l0.269,0.201l0.604,0.403l0.604,0.403l0.538,0.403l0.604,0.47l1.074,0.94l0.537,0.537l0.47,0.469l0.537,0.537l0.47,0.538l0.47,0.604l0.47,0.537l0.47,0.604l0.403,0.604l0.47,0.604l0.403,0.604l0.402,0.605l0.403,0.671l0.403,0.604l0.336,0.671l0.403,0.672l0.335,0.671l0.403,0.671l0.336,0.672l0.335,0.671l0.269,0.738l0.671,1.343l0.269,0.738l0.268,0.672l0.336,0.738l0.269,0.739l0.268,0.671l0.202,0.738l0.268,0.739l0.269,0.671l0.201,0.738l0.202,0.739l0.268,0.671l0.202,0.739l0.201,0.671l0.201,0.738l0.135,0.672l0.201,0.738l0.201,0.671l0.135,0.672l0.201,0.671" style="fill:none;fill-rule:nonzero;stroke:#f1ac43;stroke-width:1.5px;"/><path id="_868" serif:id="868" d="M403.572,163.474l0.94,-0l0.537,0.067l0.47,0l0.47,0.067l1.41,0.202l0.94,0.134l0.47,0.134l0.47,0.067l0.47,0.135l0.403,0.134l0.47,0.134l0.403,0.134l0.47,0.135l0.402,0.134l0.47,0.201l0.403,0.134l0.806,0.403l0.47,0.134l0.403,0.202l0.402,0.268l0.403,0.202l0.336,0.201l0.403,0.201l0.403,0.269l0.402,0.269l0.403,0.201l0.336,0.268l0.403,0.269l0.335,0.268l0.403,0.269l0.336,0.269l0.336,0.335l0.402,0.269l0.336,0.335l0.336,0.269l0.335,0.336l0.336,0.335l0.336,0.269l0.335,0.335l0.336,0.336l0.336,0.336l0.336,0.402l0.335,0.336l0.269,0.336l0.335,0.335l0.336,0.403l0.269,0.336l0.604,0.805l0.604,0.739l0.537,0.805l0.537,0.806l0.537,0.806l0.538,0.805l0.537,0.873l0.47,0.872l0.537,0.873l0.47,0.873l0.402,0.873l0.47,0.939l0.47,0.873l0.403,0.94l0.806,1.88l0.336,0.939l0.402,0.94l0.336,0.94l0.336,0.94l0.335,1.007l0.336,0.94l0.269,0.939l0.268,1.007l0.269,0.94l0.268,0.94l0.269,0.94l0.268,1.007l0.202,0.94l0.201,0.939l0.403,1.88l0.201,0.94l0.135,0.873l0.134,0.939l0.201,0.873l0.068,0.94l0.134,0.873" style="fill:none;fill-rule:nonzero;stroke:#f1ac43;stroke-width:1.5px;"/><path id="_869" serif:id="869" d="M435.395,197.509l0.202,-0.201l0.134,-0.202l0.201,-0.268l0.135,-0.269l0.268,-0.47l0.269,-0.537l0.201,-0.537l0.134,-0.537l0.202,-0.537l0.067,-0.537" style="fill:none;fill-rule:nonzero;stroke:#f1ac43;stroke-width:1.5px;"/><path id="_870" serif:id="870" d="M496.557,229.127l0,-12.754l11.749,-0l0,12.754l-11.749,0Z" style="fill:none;fill-rule:nonzero;stroke:#f1ac43;stroke-width:1.5px;"/><path id="_871" serif:id="871" d="M508.239,224.63l85.533,-13.695" style="fill:none;fill-rule:nonzero;stroke:#f1ac43;stroke-width:1.5px;"/><path id="_872" serif:id="872" d="M508.239,218.051l85.13,-9.734" style="fill:none;fill-rule:nonzero;stroke:#f1ac43;stroke-width:1.5px;"/><path id="_873" serif:id="873" d="M508.239,221.877l91.575,-13.023" style="fill:none;fill-rule:nonzero;stroke:#f1ac43;stroke-width:0.7px;"/><path id="_874" serif:id="874" d="M593.705,210.935l0.201,-0.067l0.268,-0l0.202,-0.067l0.201,-0l0.269,-0.067l0.268,-0.067l0.202,-0.068l0.268,-0.067l0.537,-0.067l0.47,-0.134l0.269,-0.068l0.268,-0.134l0.269,-0.067l0.201,-0.067l0.269,-0.067l0.201,-0.067l0.202,-0.067l0.403,-0.135l0.134,-0.067l0.067,0l0.067,-0.067l0.135,-0.067l0.067,-0l0.067,-0.067l0.067,-0l0.067,-0.068l0.067,0l0.068,-0.067l0.067,0l0.067,-0.067l0.067,-0.067l0.067,-0.067l0.067,-0.067l0,-0.202l-0.067,0l0,-0.067l-0.067,0l-0.067,-0.067l-0.067,-0l-0.067,-0.067l-0.135,-0l-0.067,-0.067l-0.134,-0l-0.067,-0.068l-0.269,0l-0.134,-0.067l-0.403,0l-0.202,-0.067l-0.268,0l-0.202,-0.067l-1.007,0l-0.268,-0.067l-1.813,-0l-0.268,0.067l-0.672,0l-0.201,0.067" style="fill:none;fill-rule:nonzero;stroke:#f1ac43;stroke-width:1.5px;"/><path id="_875" serif:id="875" d="M409.95,45.593l-6.378,0" style="fill:none;fill-rule:nonzero;stroke:#f1ac43;stroke-width:1.5px;"/><path id="_876" serif:id="876" d="M409.95,25.991l-6.378,-0" style="fill:none;fill-rule:nonzero;stroke:#f1ac43;stroke-width:1.5px;"/><path id="_877" serif:id="877" d="M409.95,45.593l0,-19.602" style="fill:none;fill-rule:nonzero;stroke:#f1ac43;stroke-width:1.5px;"/><path id="_878" serif:id="878" d="M411.36,150.719l-5.505,-105.126" style="fill:none;fill-rule:nonzero;stroke:#f1ac43;stroke-width:1.5px;"/><path id="_879" serif:id="879" d="M419.014,63.114l-12.219,0" style="fill:none;fill-rule:nonzero;stroke:#f1ac43;stroke-width:1.5px;"/><path id="_880" serif:id="880" d="M419.014,65.732l-12.085,0" style="fill:none;fill-rule:nonzero;stroke:#f1ac43;stroke-width:1.5px;"/><path id="_881" serif:id="881" d="M419.014,65.732l-0,-2.618" style="fill:none;fill-rule:nonzero;stroke:#f1ac43;stroke-width:1.5px;"/><path id="_882" serif:id="882" d="M403.572,37.605l1.545,-0.605l0.671,-1.611l-0.671,-1.611l-1.545,-0.604" style="fill:none;fill-rule:nonzero;stroke:#f1ac43;stroke-width:1.5px;"/><path id="_883" serif:id="883" d="M405.855,3.1l0,22.891" style="fill:none;fill-rule:nonzero;stroke:#f1ac43;stroke-width:1.5px;"/><path id="_884" serif:id="884" d="M405.855,3.1l-0.671,-1.679l-1.612,-0.671" style="fill:none;fill-rule:nonzero;stroke:#f1ac43;stroke-width:1.5px;"/><path id="_885" serif:id="885" d="M796.458,273.098l0,12.822" style="fill:none;fill-rule:nonzero;stroke:#f1ac43;stroke-width:1.5px;"/><path id="_886" serif:id="886" d="M794.243,273.098l-0,12.822" style="fill:none;fill-rule:nonzero;stroke:#f1ac43;stroke-width:1.5px;"/><path id="_887" serif:id="887" d="M542.21,265.445l0,-18.729" style="fill:none;fill-rule:nonzero;stroke:#f1ac43;stroke-width:1.5px;"/><path id="_888" serif:id="888" d="M789.208,271.017l-0,12.217" style="fill:none;fill-rule:nonzero;stroke:#f1ac43;stroke-width:1.5px;"/><path id="_889" serif:id="889" d="M789.208,283.234l0.805,1.947l1.947,0.739" style="fill:none;fill-rule:nonzero;stroke:#f1ac43;stroke-width:1.5px;"/><path id="_890" serif:id="890" d="M791.96,285.92l11.682,-0" style="fill:none;fill-rule:nonzero;stroke:#f1ac43;stroke-width:1.5px;"/><path id="_891" serif:id="891" d="M806.395,283.234l-0,-12.217" style="fill:none;fill-rule:nonzero;stroke:#f1ac43;stroke-width:1.5px;"/><path id="_892" serif:id="892" d="M803.642,268.332l-11.682,-0" style="fill:none;fill-rule:nonzero;stroke:#f1ac43;stroke-width:1.5px;"/><path id="_893" serif:id="893" d="M791.96,268.332l-1.947,0.805l-0.805,1.88" style="fill:none;fill-rule:nonzero;stroke:#f1ac43;stroke-width:1.5px;"/><path id="_894" serif:id="894" d="M806.395,271.017l-0.806,-1.88l-1.947,-0.805" style="fill:none;fill-rule:nonzero;stroke:#f1ac43;stroke-width:1.5px;"/><path id="_895" serif:id="895" d="M803.642,285.92l1.947,-0.739l0.806,-1.947" style="fill:none;fill-rule:nonzero;stroke:#f1ac43;stroke-width:1.5px;"/><path id="_896" serif:id="896" d="M791.96,273.098l14.435,-0" style="fill:none;fill-rule:nonzero;stroke:#f1ac43;stroke-width:1.5px;"/><path id="_897" serif:id="897" d="M801.427,273.098l-2.485,0.604l-1.812,1.813l-0.672,2.483l0.672,2.484l1.812,1.813l2.485,0.671l2.484,-0.671l1.812,-1.813l0.672,-2.484l-0.672,-2.483l-1.812,-1.813l-2.484,-0.604Z" style="fill:none;fill-rule:nonzero;stroke:#f1ac43;stroke-width:1.5px;"/><path id="_898" serif:id="898" d="M791.96,273.098l-1.947,0.805l-0.805,1.88" style="fill:none;fill-rule:nonzero;stroke:#f1ac43;stroke-width:1.5px;"/><path id="_899" serif:id="899" d="M791.692,276.857l-1.746,0.739l-0.738,1.745l0.738,1.812l1.746,0.739l1.812,-0.739l0.739,-1.812l-0.739,-1.745l-1.812,-0.739Z" style="fill:none;fill-rule:nonzero;stroke:#f1ac43;stroke-width:1.5px;"/><path id="_900" serif:id="900" d="M789.208,272.896l-246.998,-26.18" style="fill:none;fill-rule:nonzero;stroke:#f1ac43;stroke-width:1.5px;"/><path id="_901" serif:id="901" d="M537.846,265.176l251.362,17.589" style="fill:none;fill-rule:nonzero;stroke:#f1ac43;stroke-width:1.5px;"/><path id="_902" serif:id="902" d="M789.208,278.804l-220.546,-22.422" style="fill:none;fill-rule:nonzero;stroke:#f1ac43;stroke-width:0.7px;"/><path id="_903" serif:id="903" d="M430.763,297.6c-0,0 4.691,1.991 7.116,2.686c2.426,0.695 4.88,1.206 7.385,1.476c2.506,0.271 5.072,0.293 7.587,0.135c2.514,-0.158 5.005,-0.513 7.452,-1.074c2.448,-0.562 4.859,-1.317 7.184,-2.283c2.325,-0.965 4.58,-2.143 6.714,-3.491c2.133,-1.347 4.167,-2.88 6.042,-4.564c1.875,-1.685 3.608,-3.529 5.169,-5.505c1.562,-1.976 2.951,-4.11 4.163,-6.31c1.212,-2.201 2.257,-4.478 3.088,-6.848c0.832,-2.369 1.465,-4.835 1.88,-7.317c0.415,-2.482 0.604,-5.004 0.604,-7.519c0,-2.514 -0.604,-7.518 -0.604,-7.518" style="fill:none;fill-rule:nonzero;stroke:#f1ac43;stroke-width:1.5px;"/><path id="_904" serif:id="904" d="M424.653,303.843l19,-33.9" style="fill:none;fill-rule:nonzero;stroke:#f1ac43;stroke-width:1.5px;"/><path id="_905" serif:id="905" d="M457.215,257.658l31.89,-14.098" style="fill:none;fill-rule:nonzero;stroke:#f1ac43;stroke-width:1.5px;"/><path id="_906" serif:id="906" d="M457.215,257.658c-0,-0 -3.705,1.872 -5.371,3.088c-1.666,1.216 -3.193,2.621 -4.565,4.162c-1.373,1.541 -3.626,5.035 -3.626,5.035" style="fill:none;fill-rule:nonzero;stroke:#f1ac43;stroke-width:1.5px;"/><path id="_907" serif:id="907" d="M424.653,303.843l2.619,0" style="fill:none;fill-rule:nonzero;stroke:#f1ac43;stroke-width:1.5px;"/><path id="_908" serif:id="908" d="M427.272,303.843l18.462,-32.759" style="fill:none;fill-rule:nonzero;stroke:#f1ac43;stroke-width:1.5px;"/><path id="_909" serif:id="909" d="M458.155,259.739c-0,-0 -3.371,1.762 -4.901,2.886c-1.53,1.125 -2.969,2.409 -4.23,3.827c-1.26,1.418 -3.29,4.632 -3.29,4.632" style="fill:none;fill-rule:nonzero;stroke:#f1ac43;stroke-width:1.5px;"/><path id="_910" serif:id="910" d="M458.155,259.739l30.614,-13.493" style="fill:none;fill-rule:nonzero;stroke:#f1ac43;stroke-width:1.5px;"/><path id="_911" serif:id="911" d="M494.543,249.468l-5.774,-3.222" style="fill:none;fill-rule:nonzero;stroke:#f1ac43;stroke-width:1.5px;"/><path id="_912" serif:id="912" d="M488.769,246.246l0.336,-2.686" style="fill:none;fill-rule:nonzero;stroke:#f1ac43;stroke-width:1.5px;"/><path id="_913" serif:id="913" d="M428.682,301.36l8.19,3.088l8.527,1.812l8.728,0.47l8.727,-0.873l8.46,-2.215l7.989,-3.491l7.452,-4.632" style="fill:none;fill-rule:nonzero;stroke:#f1ac43;stroke-width:0.7px;"/><path id="_914" serif:id="914" d="M434.59,303.978l0.805,0.268l0.47,0.134l0.403,0.135l0.403,0.134l0.47,0.134l0.873,0.202l0.94,0.201l0.94,0.201l0.939,0.202l0.94,0.201l0.94,0.202l1.007,0.134l1.007,0.134l1.007,0.134l2.015,0.269l1.007,0.067l1.007,0.067l1.074,0.067l1.007,0.067l1.074,0.067l1.074,0.067l5.304,0l1.074,-0.067l1.007,0l1.075,-0.067l1.074,-0.067l1.007,-0.067l1.074,-0.134l1.007,-0.068l1.074,-0.134l1.007,-0.134l1.007,-0.134l1.007,-0.134l1.007,-0.135l1.008,-0.201l0.939,-0.202l1.008,-0.134l0.939,-0.201l0.94,-0.269l0.94,-0.201l0.94,-0.269l0.873,-0.201l0.94,-0.268l0.873,-0.336l0.872,-0.269l0.873,-0.335l0.873,-0.336l0.873,-0.336l0.805,-0.335l0.873,-0.403l0.806,-0.403l0.403,-0.201l0.403,-0.202l0.402,-0.201l0.403,-0.269l0.403,-0.201l0.403,-0.201l0.403,-0.269l0.402,-0.268l0.336,-0.202l0.403,-0.268l0.403,-0.269l0.403,-0.268l0.335,-0.269l0.403,-0.268l0.336,-0.269l0.805,-0.537l0.336,-0.336l0.336,-0.268l0.403,-0.336" style="fill:none;fill-rule:nonzero;stroke:#f1ac43;stroke-width:1.5px;"/><path id="_915" serif:id="915" d="M498.706,258.732l30.01,4.498" style="fill:none;fill-rule:nonzero;stroke:#f1ac43;stroke-width:0.7px;"/><path id="_916" serif:id="916" d="M498.706,258.732l29.607,-9.868" style="fill:none;fill-rule:nonzero;stroke:#f1ac43;stroke-width:0.7px;"/><path id="_917" serif:id="917" d="M694.679,276.119l-0,4.162" style="fill:none;fill-rule:nonzero;stroke:#f1ac43;stroke-width:1.5px;"/><path id="_918" serif:id="918" d="M694.679,280.281l-0,1.544l-0.068,0.872l-0.067,0.806l-0.134,0.806l-0.134,0.805l-0.202,0.806l-0.268,0.738l-0.202,0.336l-0.134,0.335l-0.201,0.336l-0.202,0.269l-0.268,0.268l-0.202,0.269l-0.268,0.201l-0.336,0.201l-0.268,0.202l-0.336,0.134l-0.403,0.134l-0.336,0.135l-0.402,0.067l-0.403,-0l-0.403,0.067l-0.403,-0.067l-0.403,-0l-0.403,-0.067l-0.402,-0.068l-0.336,-0.067l-0.403,-0.134l-0.336,-0.134l-0.335,-0.202l-0.336,-0.134l-0.336,-0.201l-0.268,-0.269l-0.269,-0.201l-0.201,-0.269l-0.403,-0.537l-0.403,-0.671l-0.268,-0.671l-0.269,-0.739l-0.201,-0.738l-0.135,-0.806l-0.134,-0.805l-0.134,-0.873l-0.134,-1.678" style="fill:none;fill-rule:nonzero;stroke:#f1ac43;stroke-width:1.5px;"/><path id="_919" serif:id="919" d="M682.93,280.281l-0,-4.968" style="fill:none;fill-rule:nonzero;stroke:#f1ac43;stroke-width:1.5px;"/><path id="_920" serif:id="920" d="M572.422,262.693l0,-9.801" style="fill:none;fill-rule:nonzero;stroke:#f1ac43;stroke-width:1.5px;"/><path id="_921" serif:id="921" d="M572.422,262.693l205.842,17.319" style="fill:none;fill-rule:nonzero;stroke:#f1ac43;stroke-width:1.5px;"/><path id="_922" serif:id="922" d="M778.264,274.172l-205.842,-21.28" style="fill:none;fill-rule:nonzero;stroke:#f1ac43;stroke-width:1.5px;"/><path id="_923" serif:id="923" d="M778.264,280.012l0.605,-0.067l0.604,-0.067l0.671,0l0.671,-0.067l1.41,-0.134l0.672,-0.067l0.671,-0.068l0.604,-0.134l0.336,-0.067l0.269,-0l0.268,-0.067l0.269,-0.067l0.403,-0.135l0.201,-0.067l0.134,-0.067l0.134,-0.134l0.135,-0.067l0.067,-0.067l0.067,-0.134l0.067,-0.068l-0.067,-0.134l0,-0.067l-0.134,-0.269l-0.269,-0.268l-0.201,-0.134l-0.135,-0.135l-0.201,-0.134l-0.268,-0.134l-0.202,-0.134l-0.268,-0.134l-0.269,-0.135l-0.537,-0.335l-0.604,-0.269l-0.672,-0.268l-0.671,-0.336l-1.343,-0.537l-0.604,-0.201l-0.671,-0.269l-0.605,-0.201l-0.268,-0.068l-0.269,-0.134" style="fill:none;fill-rule:nonzero;stroke:#f1ac43;stroke-width:1.5px;"/><path id="_924" serif:id="924" d="M675.88,271.42l0.403,-0.068l0.336,-0.067l0.805,-0.134l0.873,-0.134l0.873,-0.135l1.746,-0.335l0.872,-0.202l0.873,-0.134l0.806,-0.268l0.403,-0.068l0.335,-0.134l0.336,-0.067l0.336,-0.134l0.537,-0.268l0.268,-0.068l0.403,-0.268l0.269,-0.269l0.134,-0.268l0,-0.336l-0.067,-0.134l-0.269,-0.268l-0.201,-0.202l-0.403,-0.268l-0.268,-0.202l-0.269,-0.134l-0.336,-0.201l-0.268,-0.135l-0.403,-0.134l-0.336,-0.201l-0.403,-0.134l-0.738,-0.336l-0.873,-0.269l-0.873,-0.335l-1.745,-0.537l-1.612,-0.537l-0.402,-0.134l-0.403,-0.068l-0.336,-0.134l-0.403,-0.067" style="fill:none;fill-rule:nonzero;stroke:#f1ac43;stroke-width:0.7px;"/><path id="_941" serif:id="941" d="M509.246,278.535l0,-18.192" style="fill:none;fill-rule:nonzero;stroke:#f1ac43;stroke-width:0.7px;"/><path id="_942" serif:id="942" d="M498.706,258.732l37.596,-3.289" style="fill:none;fill-rule:nonzero;stroke:#f1ac43;stroke-width:0.7px;"/><path id="_943" serif:id="943" d="M536.302,255.443l1.41,-0.068l1.41,-0.134l1.343,-0.067l1.41,-0.067l1.41,-0.067l1.342,-0.067l1.41,-0.068l1.41,0" style="fill:none;fill-rule:nonzero;stroke:#f1ac43;stroke-width:0.7px;"/><path id="_944" serif:id="944" d="M542.21,246.716l-1.208,-0.135l-1.209,-0.201l-1.208,-0.201l-1.208,-0.269l-1.209,-0.268l-1.141,-0.336l-1.209,-0.403l-1.141,-0.336l-1.141,-0.469l-1.142,-0.47l-1.141,-0.47l-2.283,-1.074l-1.074,-0.537l-1.141,-0.605l-1.074,-0.604l-1.075,-0.604l-1.141,-0.604l-1.074,-0.671l-1.007,-0.672l-2.149,-1.342l-2.081,-1.41l-2.081,-1.477l-2.014,-1.477l-2.014,-1.477l-2.014,-1.477" style="fill:none;fill-rule:nonzero;stroke:#f1ac43;stroke-width:1.5px;"/><path id="_945" serif:id="945" d="M496.557,221.206l-1.544,-1.141l-1.544,-1.141l-1.611,-1.074l-1.545,-1.075l-1.611,-1.007l-1.611,-1.006l-1.611,-1.007l-1.612,-0.94l-1.678,-0.873l-1.679,-0.873l-1.745,-0.805l-1.679,-0.739l-0.872,-0.402l-0.94,-0.336l-1.746,-0.671l-0.94,-0.269l-0.873,-0.268l-1.812,-0.605l-1.88,-0.469l-1.88,-0.47l-1.88,-0.403l-1.88,-0.336l-1.947,-0.336l-1.947,-0.268l-1.947,-0.201l-1.946,-0.202l-1.947,-0.134l-1.947,-0.134l-1.947,-0.067l-1.947,-0.067l-3.894,-0l-1.947,0.067l-1.88,0.067" style="fill:none;fill-rule:nonzero;stroke:#f1ac43;stroke-width:1.5px;"/><path id="_946" serif:id="946" d="M516.161,261.35l5.707,-4.632" style="fill:none;fill-rule:nonzero;stroke:#f1ac43;stroke-width:0.7px;"/><path id="_947" serif:id="947" d="M521.868,256.718l-7.855,-3.088" style="fill:none;fill-rule:nonzero;stroke:#f1ac43;stroke-width:0.7px;"/><path id="_948" serif:id="948" d="M422.908,291.089l12.554,-22.422" style="fill:none;fill-rule:nonzero;stroke:#f1ac43;stroke-width:0.7px;"/><path id="_949" serif:id="949" d="M450.703,254.838l3.894,-1.678" style="fill:none;fill-rule:nonzero;stroke:#f1ac43;stroke-width:0.7px;"/><path id="_950" serif:id="950" d="M450.703,254.838l-6.043,3.491l-5.102,4.699l-4.096,5.639" style="fill:none;fill-rule:nonzero;stroke:#f1ac43;stroke-width:0.7px;"/><path id="_951" serif:id="951" d="M435.462,268.667l0.336,-0.47l0.269,-0.47l0.268,-0.47l0.336,-0.469l0.268,-0.47l0.336,-0.403l0.336,-0.47l0.336,-0.403l0.335,-0.47l0.336,-0.403l0.336,-0.402l0.402,-0.403l0.336,-0.47l0.336,-0.403l0.805,-0.805l0.739,-0.806l0.738,-0.738l1.612,-1.611l0.738,-0.806l0.806,-0.806l0.806,-0.805l0.738,-0.806l0.739,-0.805l0.402,-0.403l0.336,-0.47l0.403,-0.403l0.336,-0.47l0.335,-0.402l0.403,-0.47l0.336,-0.47l0.335,-0.47l0.269,-0.47l0.336,-0.47l0.335,-0.47l0.269,-0.537l0.336,-0.47l0.268,-0.537l0.269,-0.537l0.268,-0.537l0.269,-0.537l0.268,-0.537l0.202,-0.537l0.268,-0.604l0.202,-0.537l0.201,-0.537l0.134,-0.605l0.202,-0.537l0.268,-1.208l0.067,-0.537l0.135,-0.537l0.067,-0.604l-0,-0.537l0.067,-0.269l-0,-1.41l-0.067,-0.268l-0,-0.47l-0.067,-0.268l-0,-0.269l-0.067,-0.269l-0.067,-0.268l-0.068,-0.201l-0.067,-0.269l-0.067,-0.269l-0.067,-0.201l-0.067,-0.268l-0.135,-0.202l-0.067,-0.201l-0.134,-0.269l-0.067,-0.201l-0.134,-0.201l-0.134,-0.269l-0.135,-0.201l-0.268,-0.403l-0.269,-0.403l-0.201,-0.201l-0.134,-0.202l-0.202,-0.201l-0.336,-0.403l-0.335,-0.336l-0.403,-0.402l-0.403,-0.336l-0.805,-0.671l-0.47,-0.336l-0.47,-0.336l-0.47,-0.335l-0.47,-0.336l-0.47,-0.336l-0.537,-0.268l-0.47,-0.336l-0.537,-0.335l-0.538,-0.269l-0.537,-0.336l-1.007,-0.604l-1.074,-0.604l-1.141,-0.604l-1.074,-0.604l-1.075,-0.604l-0.47,-0.336l-0.537,-0.336l-0.537,-0.268l-0.47,-0.336l-0.537,-0.336l-0.47,-0.335l-0.47,-0.403l-0.47,-0.336l-0.47,-0.335l-0.47,-0.403l-0.402,-0.403l-0.47,-0.336l-0.403,-0.402l-0.336,-0.403l-0.403,-0.47l-0.134,-0.201l-0.403,-0.403l-0.134,-0.269l-0.134,-0.201l-0.202,-0.269l-0.268,-0.402l-0.269,-0.537l-0.134,-0.202l-0.134,-0.268l-0.067,-0.269l-0.134,-0.268" style="fill:none;fill-rule:nonzero;stroke:#f1ac43;stroke-width:0.7px;"/><path id="_952" serif:id="952" d="M437.409,209.123l0.336,0.469l0.403,0.538l0.47,0.469l0.47,0.47l0.47,0.403l0.47,0.47l0.47,0.403l0.537,0.403l0.604,0.402l0.537,0.403l0.604,0.403l0.537,0.403l0.672,0.335l0.604,0.403l0.604,0.336l2.014,1.007l1.343,0.671l1.41,0.604l1.41,0.604l1.477,0.605l1.477,0.604l1.477,0.537l1.41,0.537l1.477,0.537l1.477,0.537l1.41,0.537l1.41,0.537l1.342,0.47l0.672,0.268l0.671,0.269l0.604,0.269l0.672,0.268l0.604,0.269l0.604,0.268l0.604,0.269l0.605,0.268l0.537,0.269l0.537,0.268l0.537,0.269l0.47,0.268l0.47,0.336l0.47,0.268l0.47,0.269l0.403,0.336l0.402,0.268l0.403,0.269l0.336,0.335l0.269,0.336l0.335,0.268l0.269,0.336l0.201,0.336l0.269,0.335l0.268,0.672l0.134,0.402l0.068,0.336l0.067,0.403l0.067,0.336l-0.067,0.402l-0,0.403l-0.067,0.403l-0.135,0.403l-0.134,0.402l-0.134,0.403l-0.403,0.806l-0.268,0.47l-0.202,0.403l-0.336,0.402l-0.268,0.47l-0.336,0.403l-0.403,0.47l-0.335,0.47l-0.403,0.403l-0.403,0.47l-0.47,0.469l-0.873,0.873l-0.47,0.47l-0.537,0.47l-0.47,0.47l-0.537,0.403l-0.537,0.47l-0.604,0.469l-0.537,0.47l-0.537,0.403l-1.209,0.94l-1.208,0.873l-1.209,0.872l-1.275,0.873l-1.276,0.873l-1.276,0.805l-1.342,0.806l-1.276,0.805l-1.276,0.739l-1.208,0.738l-1.276,0.739l-0.604,0.335l-0.604,0.336l-0.604,0.336l-0.537,0.268l-0.605,0.336l-0.537,0.268" style="fill:none;fill-rule:nonzero;stroke:#f1ac43;stroke-width:0.7px;"/><path id="_953" serif:id="953" d="M454.597,253.16l0.604,-0.336l1.342,-0.671l0.672,-0.336l0.671,-0.335l0.739,-0.336l0.738,-0.403l0.739,-0.335l0.738,-0.336l0.739,-0.403l1.544,-0.738l1.611,-0.671l1.612,-0.806l1.611,-0.738l1.611,-0.739l3.29,-1.544l1.678,-0.805l1.612,-0.806l1.611,-0.738l1.611,-0.806l1.544,-0.806l1.544,-0.738l1.477,-0.806l0.739,-0.402l0.671,-0.403l0.739,-0.403l0.671,-0.403l0.672,-0.335l0.671,-0.403l0.604,-0.403l0.604,-0.403l0.605,-0.402l0.604,-0.336l0.537,-0.403l0.537,-0.403l0.537,-0.335l0.47,-0.403l0.537,-0.403l0.403,-0.336l0.47,-0.402l0.403,-0.336l0.335,-0.403l0.336,-0.335l0.336,-0.403l0.268,-0.336l0.269,-0.335l0.269,-0.403l0.201,-0.336l0.134,-0.336" style="fill:none;fill-rule:nonzero;stroke:#f1ac43;stroke-width:0.7px;"/><path id="_954" serif:id="954" d="M514.013,253.63l-0.403,-0.873l-0.403,-0.805l-0.403,-0.806l-0.47,-0.805l-0.47,-0.806l-0.47,-0.806l-0.537,-0.805l-0.537,-0.739l-0.604,-0.805l-0.537,-0.739l-0.604,-0.738l-0.672,-0.738l-0.604,-0.672l-0.671,-0.738l-0.672,-0.671l-0.671,-0.672l-0.738,-0.604l-0.672,-0.604l-0.738,-0.671l-0.806,-0.537l-0.739,-0.605l-0.738,-0.537l-0.806,-0.537l-0.805,-0.537l-0.806,-0.47l-0.806,-0.47l-0.872,-0.402l-0.806,-0.47l-0.873,-0.403l-0.805,-0.336l-0.873,-0.335l-0.873,-0.336" style="fill:none;fill-rule:nonzero;stroke:#f1ac43;stroke-width:0.7px;"/><path id="_955" serif:id="955" d="M476.617,242.621l0.605,-0.269l0.604,-0.336l0.604,-0.335l0.672,-0.336l1.275,-0.671l1.276,-0.739l1.275,-0.805l1.276,-0.806l1.276,-0.872l1.275,-0.873l1.209,-0.873l0.537,-0.47l0.604,-0.402l0.537,-0.47l0.537,-0.47l0.537,-0.403l0.537,-0.47l0.47,-0.47l0.47,-0.47l0.47,-0.403l0.403,-0.47l0.403,-0.469l0.403,-0.403l0.403,-0.47l0.335,-0.403l0.269,-0.47l0.268,-0.403l0.269,-0.402l0.201,-0.403l0.202,-0.403l0.134,-0.403l0.134,-0.403l0.067,-0.335l0.068,-0.403l-0,-0.738l-0.135,-0.672l-0.067,-0.335l-0.268,-0.672l-0.202,-0.335l-0.201,-0.336l-0.269,-0.336l-0.268,-0.335l-0.269,-0.336l-0.335,-0.336l-0.336,-0.335l-0.403,-0.336l-0.403,-0.336l-0.403,-0.268l-0.47,-0.336l-0.402,-0.335l-0.538,-0.269l-0.469,-0.336l-0.538,-0.268l-0.537,-0.336l-0.537,-0.268l-0.604,-0.336l-0.604,-0.268l-0.604,-0.269l-0.672,-0.336l-0.604,-0.268l-0.671,-0.269l-0.739,-0.268l-0.671,-0.269l-0.739,-0.268l-0.671,-0.269l-0.739,-0.268l-0.805,-0.269l-0.739,-0.268l-1.544,-0.47l-1.611,-0.537l-1.679,-0.47l-1.678,-0.47l-1.679,-0.47l-1.745,-0.403l-1.746,-0.402l-1.812,-0.403l-1.746,-0.403l-1.813,-0.403l-1.812,-0.335l-1.746,-0.336l-1.813,-0.336l-1.745,-0.335l-1.813,-0.269l-1.678,-0.268l-1.746,-0.269l-1.678,-0.201l-1.679,-0.269l-1.611,-0.201l-1.611,-0.135l-0.739,-0.134l-0.805,-0.067l-1.477,-0.134l-0.672,-0.067l-0.738,-0.068l-0.672,0l-0.671,-0.067" style="fill:none;fill-rule:nonzero;stroke:#f1ac43;stroke-width:0.7px;"/><path id="_956" serif:id="956" d="M442.579,213.822l0.806,-0.067l0.872,-0l0.873,-0.068l0.806,0l0.873,-0.067l1.678,0l0.873,0.067l1.745,0l0.806,0.068l0.873,0.067l0.873,0.067l1.745,0.134l0.806,0.067l0.873,0.068l0.872,0.134l0.873,0.067l0.873,0.134l0.873,0.134l0.94,0.135l1.745,0.268l0.873,0.134l0.873,0.135l0.94,0.201l0.872,0.134l0.94,0.202l0.873,0.134l0.94,0.201l0.873,0.202l0.94,0.201l0.94,0.201l0.94,0.202l0.872,0.201l0.94,0.202l0.94,0.201l0.94,0.201l1.007,0.269l1.88,0.47l1.88,0.47l0.94,0.201l0.94,0.269l0.94,0.268l0.872,0.202l0.94,0.268l0.873,0.269l0.806,0.268l0.403,0.134l0.47,0.135l0.402,0.134l0.336,0.134l0.806,0.268l0.403,0.135l0.671,0.268l0.403,0.134l0.335,0.135l0.336,0.134l0.269,0.134l0.671,0.269l0.269,0.134l0.805,0.402l0.269,0.135l0.201,0.134l0.202,0.201l0.268,0.135l0.202,0.134l0.134,0.134l0.201,0.134" style="fill:none;fill-rule:nonzero;stroke:#f1ac43;stroke-width:0.7px;"/><path id="_957" serif:id="957" d="M470.978,222.012l4.565,-4.162" style="fill:none;fill-rule:nonzero;stroke:#f1ac43;stroke-width:0.7px;"/><path id="_958" serif:id="958" d="M470.978,222.012l0.873,0.402l0.873,0.403l0.872,0.403l0.94,0.403l0.873,0.47l0.873,0.47l0.873,0.537l0.402,0.268l0.403,0.202l0.403,0.335l0.336,0.269l0.403,0.268l0.335,0.269l0.336,0.335l0.268,0.336l0.269,0.269l0.269,0.335l0.268,0.336l0.202,0.336l0.201,0.402l0.268,0.672l0.135,0.402l0.067,0.403l0.067,0.403l-0,1.208l-0.067,0.47l-0.067,0.403l-0.135,0.403l-0.134,0.47l-0.134,0.402l-0.134,0.47l-0.202,0.47l-0.201,0.403l-0.202,0.47l-0.268,0.403l-0.202,0.47l-0.268,0.402l-0.269,0.47l-0.604,0.806l-0.604,0.873l-0.671,0.805l-0.672,0.806l-0.671,0.738l-0.739,0.671l-0.335,0.336l-0.336,0.336l-0.403,0.268l-0.336,0.336" style="fill:none;fill-rule:nonzero;stroke:#f1ac43;stroke-width:0.7px;"/><path id="_959" serif:id="959" d="M473.261,219.931l0.47,0.134l0.47,0.067l0.537,0.134l0.47,0.134l0.47,0.068l0.537,0.134l0.47,0.134l0.47,0.202l0.537,0.134l0.47,0.134l0.94,0.403l0.537,0.134l0.47,0.201l0.94,0.403l0.402,0.269l0.47,0.201l0.403,0.269l0.47,0.201l0.403,0.269l0.336,0.268l0.402,0.269l0.336,0.268l0.403,0.269l0.268,0.335l0.336,0.269l0.269,0.335l0.134,0.135l0.134,0.201l0.269,0.269l0.067,0.201l0.134,0.134l0.067,0.202l0.135,0.201l0.067,0.134l0.067,0.202l0.067,0.201l0.067,0.134l0.067,0.202l0.135,0.402l-0,0.202l0.067,0.201l-0,1.611l-0.067,0.202l-0.068,0.402l-0.067,0.47l-0.134,0.403l-0.134,0.47l-0.135,0.403l-0.134,0.47l-0.201,0.403l-0.202,0.469l-0.201,0.403l-0.201,0.47l-0.269,0.403l-0.201,0.47l-0.269,0.403l-0.268,0.47l-0.269,0.402l-0.269,0.403l-0.537,0.806l-0.335,0.402l-0.269,0.336l-0.268,0.403l-0.269,0.336l-0.336,0.335" style="fill:none;fill-rule:nonzero;stroke:#f1ac43;stroke-width:0.7px;"/><path id="_960" serif:id="960" d="M475.543,217.85l0.47,0.134l0.47,0.134l1.007,0.201l1.074,0.269l1.008,0.201l1.074,0.269l1.141,0.268l1.074,0.269l1.074,0.336l1.075,0.268l1.007,0.336l0.537,0.201l1.41,0.604l0.47,0.202l0.47,0.268l0.402,0.202l0.403,0.268l0.403,0.201l0.336,0.269l0.335,0.269l0.336,0.335l0.336,0.269l0.268,0.335l0.269,0.336l0.201,0.336l0.202,0.335l0.134,0.336l0.134,0.403l0.134,0.335l0.067,0.403l0,0.47l0.068,0.403l-0.068,0.47l-0.067,0.403l-0.067,0.469l-0.268,0.94l-0.135,0.47l-0.201,0.47l-0.201,0.47l-0.269,0.47l-0.268,0.47l-0.269,0.403l-0.269,0.47l-0.671,0.805l-0.336,0.403l-0.335,0.403l-0.336,0.335l-0.806,0.672l-0.402,0.268l-0.336,0.269" style="fill:none;fill-rule:nonzero;stroke:#f1ac43;stroke-width:0.7px;"/><path id="_961" serif:id="961" d="M391.823,215.5c-0.95,-0 -1.93,0.263 -2.752,0.738c-0.823,0.475 -1.539,1.192 -2.014,2.014c-0.475,0.823 -0.739,1.803 -0.739,2.753c0,0.95 0.264,1.93 0.739,2.752c0.475,0.822 1.191,1.539 2.014,2.014c0.822,0.475 1.802,0.738 2.752,0.738c0.95,0 1.931,-0.263 2.753,-0.738c0.822,-0.475 1.539,-1.192 2.014,-2.014c0.475,-0.822 0.739,-1.802 0.739,-2.752c-0,-0.95 -0.264,-1.93 -0.739,-2.753c-0.475,-0.822 -1.192,-1.539 -2.014,-2.014c-0.822,-0.475 -1.803,-0.738 -2.753,-0.738Z" style="fill:none;fill-rule:nonzero;stroke:#f1ac43;stroke-width:1.5px;"/><path id="_962" serif:id="962" d="M409.413,226.241l0,-6.109l6.915,-0l0,6.109l-6.915,-0Z" style="fill:none;fill-rule:nonzero;stroke:#f1ac43;stroke-width:1.5px;"/><path id="_963" serif:id="963" d="M414.314,227.315l-7.049,-0l-0,-8.526l7.049,0" style="fill:none;fill-rule:nonzero;stroke:#f1ac43;stroke-width:1.5px;"/><path id="_964" serif:id="964" d="M416.328,220.132l-2.014,-1.343" style="fill:none;fill-rule:nonzero;stroke:#f1ac43;stroke-width:1.5px;"/><path id="_965" serif:id="965" d="M409.413,220.132l-2.148,-1.343" style="fill:none;fill-rule:nonzero;stroke:#f1ac43;stroke-width:1.5px;"/><path id="_966" serif:id="966" d="M407.265,227.315l2.148,-1.074" style="fill:none;fill-rule:nonzero;stroke:#f1ac43;stroke-width:1.5px;"/><path id="_967" serif:id="967" d="M414.314,227.315l2.014,-1.074" style="fill:none;fill-rule:nonzero;stroke:#f1ac43;stroke-width:1.5px;"/><path id="_968" serif:id="968" d="M407.265,219.931l-3.693,-0.202" style="fill:none;fill-rule:nonzero;stroke:#f1ac43;stroke-width:1.5px;"/><path id="_969" serif:id="969" d="M417.134,230.403l-0.336,-0.201l-0.805,-0.403l-0.403,-0.202l-0.403,-0.134l-0.403,-0.201l-0.805,-0.269l-0.806,-0.268l-0.873,-0.269l-0.873,-0.201l-0.872,-0.202l-0.873,-0.134l-0.873,-0.134l-0.873,-0.134l-0.873,-0.068l-0.872,-0.067l-0.873,0l-0.873,-0.067l-0.873,0" style="fill:none;fill-rule:nonzero;stroke:#f1ac43;stroke-width:0.7px;"/><path id="_970" serif:id="970" d="M417.134,230.403l3.693,-5.975" style="fill:none;fill-rule:nonzero;stroke:#f1ac43;stroke-width:0.7px;"/><path id="_971" serif:id="971" d="M499.176,236.78l-0,-7.653" style="fill:none;fill-rule:nonzero;stroke:#f1ac43;stroke-width:0.7px;"/><path id="_972" serif:id="972" d="M454.865,253.026l2.081,4.699" style="fill:none;fill-rule:nonzero;stroke:#f1ac43;stroke-width:0.7px;"/><path id="_973" serif:id="973" d="M479.907,240.942l2.417,5.572" style="fill:none;fill-rule:nonzero;stroke:#f1ac43;stroke-width:0.7px;"/><path id="_974" serif:id="974" d="M424.183,288.739l6.781,3.827" style="fill:none;fill-rule:nonzero;stroke:#f1ac43;stroke-width:0.7px;"/><path id="_975" serif:id="975" d="M441.236,261.216l5.505,4.296" style="fill:none;fill-rule:nonzero;stroke:#f1ac43;stroke-width:0.7px;"/><path id="_976" serif:id="976" d="M403.572,295.855c0,0 4.59,-0.2 6.848,-0.604c2.258,-0.404 4.5,-1.003 6.647,-1.813c2.147,-0.809 6.177,-3.021 6.177,-3.021" style="fill:none;fill-rule:nonzero;stroke:#f1ac43;stroke-width:0.7px;"/><path id="_977" serif:id="977" d="M422.908,291.089l-0.202,-0.336" style="fill:none;fill-rule:nonzero;stroke:#f1ac43;stroke-width:1.5px;"/><path id="_978" serif:id="978" d="M434.59,303.978l-0.806,-0.202l-0.806,-0.268l-0.738,-0.202l-1.611,-0.537l-0.739,-0.268l-1.544,-0.537" style="fill:none;fill-rule:nonzero;stroke:#f1ac43;stroke-width:1.5px;"/><path id="_979" serif:id="979" d="M426.13,301.225l-2.819,-1.007l-1.41,-0.469l-1.343,-0.47l-1.41,-0.47l-1.41,-0.403l-0.671,-0.201l-0.739,-0.269l-0.671,-0.201l-0.671,-0.135l-0.739,-0.201l-0.671,-0.201l-0.739,-0.135l-0.671,-0.201l-1.477,-0.268l-0.671,-0.135l-0.739,-0.134l-0.671,-0.067l-0.739,-0.134l-0.738,-0.068l-0.672,-0.067l-0.738,-0.067l-1.477,0l-0.672,-0.067" style="fill:none;fill-rule:nonzero;stroke:#f1ac43;stroke-width:1.5px;"/><path id="_980" serif:id="980" d="M486.755,289.276l0,6.848l11.682,-0l0,-12.084l-7.654,0" style="fill:none;fill-rule:nonzero;stroke:#f1ac43;stroke-width:1.5px;"/><path id="_981" serif:id="981" d="M486.755,289.276l4.028,-5.236" style="fill:none;fill-rule:nonzero;stroke:#f1ac43;stroke-width:1.5px;"/><path id="_982" serif:id="982" d="M498.37,284.04l4.699,-7.384l3.492,-7.989l2.282,-8.391" style="fill:none;fill-rule:nonzero;stroke:#f1ac43;stroke-width:0.7px;"/><path id="_983" serif:id="983" d="M498.437,292.633l0.47,-0.537l0.537,-0.604l0.537,-0.605l0.47,-0.604l0.537,-0.671l0.47,-0.604l0.537,-0.672l0.47,-0.604l0.47,-0.671l0.537,-0.671l1.007,-1.343l0.94,-1.343l1.007,-1.409l1.007,-1.343l1.007,-1.343l0.47,-0.671l0.538,-0.671l0.537,-0.604l0.537,-0.672l0.537,-0.604l0.537,-0.671l1.074,-1.208l0.537,-0.605l0.537,-0.537l0.605,-0.604l0.604,-0.537l0.537,-0.537l0.604,-0.537l0.336,-0.201l0.268,-0.269l0.336,-0.268l0.336,-0.202l0.268,-0.268l0.336,-0.202l0.336,-0.201l0.268,-0.269l0.336,-0.201l0.336,-0.201l0.335,-0.202l0.336,-0.201l0.336,-0.134l0.335,-0.202l0.336,-0.201l0.336,-0.134l0.402,-0.202l0.336,-0.134l0.336,-0.134l0.336,-0.202l0.402,-0.134l0.336,-0.134l0.403,-0.134l0.336,-0.068l0.335,-0.134l0.403,-0.134l0.336,-0.134l0.403,-0.067l0.738,-0.202l0.739,-0.201l0.805,-0.134l0.739,-0.135l0.805,-0.134l0.739,-0.067l0.806,-0.067l0.738,-0.067l0.806,-0.067l0.738,-0.067l3.088,-0l0.739,0.067l0.738,0.067" style="fill:none;fill-rule:nonzero;stroke:#f1ac43;stroke-width:1.5px;"/><path id="_984" serif:id="984" d="M419.148,251.683l-0.47,-0.604" style="fill:none;fill-rule:nonzero;stroke:#f1ac43;stroke-width:1.5px;"/><path id="_985" serif:id="985" d="M403.572,233.155l0.336,0l0,10.338" style="fill:none;fill-rule:nonzero;stroke:#f1ac43;stroke-width:1.5px;"/><path id="_986" serif:id="986" d="M403.908,281.153l0,2.149" style="fill:none;fill-rule:nonzero;stroke:#f1ac43;stroke-width:1.5px;"/><path id="_987" serif:id="987" d="M420.827,269.808l3.759,2.149" style="fill:none;fill-rule:nonzero;stroke:#f1ac43;stroke-width:1.5px;"/><path id="_988" serif:id="988" d="M418.678,251.079l7.251,-4.162" style="fill:none;fill-rule:nonzero;stroke:#f1ac43;stroke-width:1.5px;"/><path id="_989" serif:id="989" d="M424.116,272.561l-3.625,-2.081" style="fill:none;fill-rule:nonzero;stroke:#f1ac43;stroke-width:1.5px;"/><path id="_990" serif:id="990" d="M426.265,247.588l-7.117,4.095" style="fill:none;fill-rule:nonzero;stroke:#f1ac43;stroke-width:1.5px;"/><path id="_991" serif:id="991" d="M403.908,243.493l-0.336,0" style="fill:none;fill-rule:nonzero;stroke:#f1ac43;stroke-width:1.5px;"/><path id="_992" serif:id="992" d="M403.572,281.153l0.336,0" style="fill:none;fill-rule:nonzero;stroke:#f1ac43;stroke-width:1.5px;"/><path id="_993" serif:id="993" d="M420.491,270.48l0.336,-0.672" style="fill:none;fill-rule:nonzero;stroke:#f1ac43;stroke-width:1.5px;"/><path id="_994" serif:id="994" d="M403.572,270.144l-0.402,0.134l-0.202,0.403l0.202,0.403l0.402,0.134l0.336,-0.134l0.201,-0.403l-0.201,-0.403l-0.336,-0.134Z" style="fill:none;fill-rule:nonzero;stroke:#f1ac43;stroke-width:1.5px;"/><path id="_995" serif:id="995" d="M441.438,249.132l-0.537,-4.229l-1.209,-4.028" style="fill:none;fill-rule:nonzero;stroke:#f1ac43;stroke-width:0.7px;"/><path id="_996" serif:id="996" d="M441.438,249.132l6.311,-3.826" style="fill:none;fill-rule:nonzero;stroke:#f1ac43;stroke-width:0.7px;"/><path id="_997" serif:id="997" d="M447.749,245.306l2.752,-3.759" style="fill:none;fill-rule:nonzero;stroke:#f1ac43;stroke-width:0.7px;"/><path id="_998" serif:id="998" d="M450.501,241.547l-0.403,-3.424" style="fill:none;fill-rule:nonzero;stroke:#f1ac43;stroke-width:0.7px;"/><path id="_999" serif:id="999" d="M450.098,238.123l-10.406,2.752" style="fill:none;fill-rule:nonzero;stroke:#f1ac43;stroke-width:0.7px;"/><path id="_1000" serif:id="1000" d="M460.505,238.257l6.915,-2.551" style="fill:none;fill-rule:nonzero;stroke:#f1ac43;stroke-width:0.7px;"/><path id="_1001" serif:id="1001" d="M459.699,235.706l6.915,-2.484" style="fill:none;fill-rule:nonzero;stroke:#f1ac43;stroke-width:0.7px;"/><path id="_1002" serif:id="1002" d="M460.505,238.257l-0.135,0l-0.067,0.067l-0.537,0l-0.067,-0.067l-0.135,0l-0.067,-0.067l-0.134,-0l-0.067,-0.067l-0.067,-0l-0.067,-0.067l-0.068,-0l-0.067,-0.067l-0.067,-0l0,-0.068l-0.067,-0.067l-0.067,-0.067l-0.067,-0.067l-0,-0.067l-0.067,-0.067l-0,-0.135l-0.067,-0.067l-0,-0.336l0.067,-0.067l-0,-0.201l0.067,-0.067l-0,-0.068l0.067,-0.067l-0,-0.067l0.067,-0.067l-0,-0.067l0.067,-0.067l0,-0.067l0.067,-0l0.067,-0.068l0,-0.067l0.068,-0.067l0.067,-0l0.067,-0.067l-0,-0.067l0.067,-0l0.067,-0.067l0.067,-0l0.067,-0.068l0.068,0l0.067,-0.067" style="fill:none;fill-rule:nonzero;stroke:#f1ac43;stroke-width:0.7px;"/><path id="_1003" serif:id="1003" d="M467.42,235.706l0.134,0l0.067,-0.067l0.067,0l0.067,-0.067l0.135,-0.134l0.067,-0.067l0.067,-0.068l0.067,0l0.067,-0.067l0,-0.067l0.067,-0.067l0.068,-0.067l-0,-0.067l0.134,-0.135l0,-0.067l0.067,-0.067l0,-0.134l0.067,-0.067l0,-0.202l0.067,-0.067l0,-0.202l-0.067,-0.067l0,-0.134l-0.067,-0.067l0,-0.067l-0.067,-0.067l-0.067,-0l-0,-0.068l-0.067,-0.067l-0.068,0l-0.134,-0.134l-0.067,0l-0.067,-0.067l-0.135,-0l-0.067,-0.067l-0.134,-0l-0.067,-0.068l-0.873,0l-0.067,0.068" style="fill:none;fill-rule:nonzero;stroke:#f1ac43;stroke-width:0.7px;"/><path id="_1004" serif:id="1004" d="M587.461,208.988l0.335,2.887" style="fill:none;fill-rule:nonzero;stroke:#f1ac43;stroke-width:1.5px;"/><path id="_1005" serif:id="1005" d="M558.525,252.086l-0,8.66" style="fill:none;fill-rule:nonzero;stroke:#f1ac43;stroke-width:1.5px;"/><path id="_1006" serif:id="1006" d="M568.662,261.35l0,-8.123" style="fill:none;fill-rule:nonzero;stroke:#f1ac43;stroke-width:1.5px;"/><path id="_1007" serif:id="1007" d="M558.525,252.086l10.137,1.141" style="fill:none;fill-rule:nonzero;stroke:#f1ac43;stroke-width:1.5px;"/><path id="_1008" serif:id="1008" d="M558.525,260.746l10.137,0.604" style="fill:none;fill-rule:nonzero;stroke:#f1ac43;stroke-width:1.5px;"/><path id="_1009" serif:id="1009" d="M552.751,259.202l0.604,-0.403l0.47,-0.47l0.537,-0.47l0.202,-0.201l0.47,-0.47l0.134,-0.269l0.201,-0.201l0.134,-0.201l0.067,-0.269l0.135,-0.201l0.067,-0.269l-0,-0.671l-0.134,-0.269l-0.068,-0.268l-0.134,-0.202l-0.201,-0.268l-0.134,-0.201l-0.269,-0.202l-0.201,-0.201l-0.269,-0.202l-0.201,-0.201l-0.269,-0.201l-0.268,-0.135l-0.269,-0.134l-0.336,-0.134l-0.268,-0.067" style="fill:none;fill-rule:nonzero;stroke:#f1ac43;stroke-width:1.5px;"/><path id="_1010" serif:id="1010" d="M544.963,259.537l0.47,-0.537l0.403,-0.604l0.47,-0.537l0.201,-0.268l0.134,-0.269l0.202,-0.268l0.403,-0.806l0.201,-0.805l0,-0.538l-0.067,-0.201l-0.134,-0.537l-0.135,-0.268l-0.201,-0.202l-0.134,-0.268l-0.202,-0.269l-0.201,-0.201l-0.202,-0.269l-0.268,-0.201l-0.269,-0.269l-0.47,-0.47l-0.537,-0.47" style="fill:none;fill-rule:nonzero;stroke:#f1ac43;stroke-width:1.5px;"/><path id="_1011" serif:id="1011" d="M544.963,259.537l7.788,-0.335" style="fill:none;fill-rule:nonzero;stroke:#f1ac43;stroke-width:1.5px;"/><path id="_1012" serif:id="1012" d="M544.627,251.28l8.124,1.142" style="fill:none;fill-rule:nonzero;stroke:#f1ac43;stroke-width:1.5px;"/><path id="_1013" serif:id="1013" d="M555.772,255.107l1.41,0.134l1.343,0.067" style="fill:none;fill-rule:nonzero;stroke:#f1ac43;stroke-width:0.7px;"/><path id="_1014" serif:id="1014" d="M320.457,172.805c-0.56,0 -1.126,0.182 -1.612,0.47c-0.485,0.288 -0.92,0.723 -1.208,1.208c-0.288,0.486 -0.47,1.052 -0.47,1.611c-0,0.56 0.182,1.126 0.47,1.612c0.288,0.485 0.72,0.931 1.208,1.208c0.489,0.277 1.058,0.403 1.612,0.403c0.553,-0 1.122,-0.126 1.611,-0.403c0.489,-0.277 0.932,-0.72 1.208,-1.208c0.277,-0.489 0.403,-1.058 0.403,-1.612c0,-0.553 -0.126,-1.122 -0.403,-1.611c-0.276,-0.488 -0.722,-0.92 -1.208,-1.208c-0.486,-0.288 -1.052,-0.47 -1.611,-0.47Z" style="fill:none;fill-rule:nonzero;stroke:#f1ac43;stroke-width:1.5px;"/><path id="_1015" serif:id="1015" d="M320.457,174.483c-0.412,0 -0.851,0.179 -1.142,0.47c-0.291,0.291 -0.47,0.73 -0.47,1.141c0,0.412 0.179,0.851 0.47,1.142c0.291,0.291 0.73,0.47 1.142,0.47c0.411,-0 0.85,-0.179 1.141,-0.47c0.291,-0.291 0.47,-0.73 0.47,-1.142c-0,-0.411 -0.179,-0.85 -0.47,-1.141c-0.291,-0.291 -0.73,-0.47 -1.141,-0.47Z" style="fill:none;fill-rule:nonzero;stroke:#f1ac43;stroke-width:1.5px;"/><path id="_1016" serif:id="1016" d="M322.806,173.879l47.131,49.878" style="fill:none;fill-rule:nonzero;stroke:#f1ac43;stroke-width:1.5px;"/><path id="_1017" serif:id="1017" d="M318.107,178.31l46.996,49.81" style="fill:none;fill-rule:nonzero;stroke:#f1ac43;stroke-width:1.5px;"/><path id="_1018" serif:id="1018" d="M365.103,228.12l0.067,0l0.067,0.067l0.134,0.068l0.537,-0l0.202,-0.068l0.134,-0.067l0.134,-0.067l0.202,-0.067l0.134,-0.067l0.201,-0.067l0.202,-0.135l0.134,-0.134l0.201,-0.067l0.202,-0.134l0.134,-0.134l0.201,-0.134l0.336,-0.336l0.201,-0.134l0.135,-0.202l0.201,-0.134l0.134,-0.201l0.135,-0.135l0.134,-0.201l0.134,-0.134l0.134,-0.202l0.067,-0.134l0.135,-0.201l0.067,-0.134l0.134,-0.269l0.067,-0.134l-0,-0.134l0.067,-0.135l0,-0.335l-0.067,-0.067l-0,-0.135l-0.067,-0.067" style="fill:none;fill-rule:nonzero;stroke:#f1ac43;stroke-width:0.7px;"/><path id="_1019" serif:id="1019" d="M364.297,227.248l-0.067,0.201l-0.134,0.134l-0.134,0.202l-0.067,0.201l-0.135,0.269l-0.067,0.201l0,0.269l-0.067,0.067l0,0.134l0.067,0.134l0,0.067l0.067,0.068l0,0.067l0.067,0.067l0.135,0.067l0.067,0.067l0.604,0l0.134,-0.067l0.202,-0l0.134,-0.067l0.201,-0.067l0.202,-0.067l0.134,-0.135l0.201,-0.067l0.202,-0.134l0.268,-0.134l0.605,-0.403l0.201,-0.134l0.268,-0.134l0.202,-0.202l0.201,-0.201l0.269,-0.134l0.201,-0.202l0.403,-0.402l0.201,-0.202l0.269,-0.201l0.201,-0.202l0.135,-0.201l0.201,-0.201l0.403,-0.403l0.268,-0.403l0.135,-0.201l0.201,-0.202l0.067,-0.201l0.134,-0.134l0.135,-0.202l0.067,-0.201l0.067,-0.134l0.067,-0.202l0.067,-0.134l0.067,-0.134l0,-0.134l0.067,-0.135l0,-0.201l-0.067,-0.134l0,-0.067l-0.067,-0.068l0,-0.067l-0.134,-0.067l-0.067,-0.067l-0.067,0l-0.135,-0.067l-0.335,-0l-0.135,0.067l-0.201,0l-0.134,0.067l-0.202,0.067l-0.134,0.067l-0.403,0.135l-0.201,0.134" style="fill:none;fill-rule:nonzero;stroke:#f1ac43;stroke-width:0.7px;"/><path id="_1020" serif:id="1020" d="M299.376,260.88c-0.56,0 -1.129,0.193 -1.612,0.47c-0.483,0.277 -0.928,0.663 -1.208,1.141c-0.28,0.478 -0.403,1.058 -0.403,1.611c0,0.554 0.126,1.123 0.403,1.611c0.277,0.489 0.72,0.932 1.208,1.209c0.489,0.277 1.058,0.403 1.612,0.403c0.553,-0 1.122,-0.126 1.611,-0.403c0.489,-0.277 0.932,-0.72 1.208,-1.209c0.277,-0.488 0.403,-1.057 0.403,-1.611c0,-0.553 -0.123,-1.133 -0.403,-1.611c-0.279,-0.478 -0.725,-0.864 -1.208,-1.141c-0.483,-0.277 -1.052,-0.47 -1.611,-0.47Z" style="fill:none;fill-rule:nonzero;stroke:#f1ac43;stroke-width:1.5px;"/><path id="_1021" serif:id="1021" d="M304.142,260.544c0,0 -1.063,-1.142 -1.745,-1.544c-0.683,-0.401 -1.482,-0.702 -2.283,-0.805c-0.801,-0.103 -1.651,-0.029 -2.417,0.201c-0.766,0.231 -1.467,0.641 -2.081,1.141c-0.615,0.501 -1.178,1.113 -1.544,1.813c-0.367,0.7 -0.545,1.486 -0.604,2.282c-0.06,0.797 0.013,1.662 0.268,2.417c0.255,0.755 0.686,1.422 1.209,2.014c0.522,0.592 1.157,1.132 1.879,1.477c0.723,0.345 1.551,0.515 2.35,0.537c0.799,0.022 1.608,-0.118 2.35,-0.403c0.742,-0.285 1.444,-0.727 2.014,-1.275c0.571,-0.549 1.343,-1.947 1.343,-1.947" style="fill:none;fill-rule:nonzero;stroke:#f1ac43;stroke-width:1.5px;"/><path id="_1022" serif:id="1022" d="M403.572,233.155c0,0 -3.803,0.187 -5.639,0.604c-1.836,0.418 -3.627,1.068 -5.304,1.88c-1.677,0.812 -3.234,1.785 -4.7,2.954c-1.465,1.169 -2.859,2.562 -4.028,4.028c-1.169,1.465 -2.142,3.022 -2.954,4.699c-0.812,1.676 -1.462,3.467 -1.88,5.303c-0.417,1.836 -0.605,3.76 -0.604,5.639c0.001,1.879 0.188,3.747 0.604,5.572c0.417,1.825 1.07,3.615 1.88,5.303c0.811,1.688 1.783,3.301 2.954,4.766c1.172,1.466 2.564,2.803 4.028,3.961c1.465,1.158 3.023,2.142 4.7,2.954c1.677,0.812 3.468,1.462 5.304,1.879c1.836,0.418 5.639,0.605 5.639,0.605" style="fill:none;fill-rule:nonzero;stroke:#f1ac43;stroke-width:0.7px;"/><path id="_1023" serif:id="1023" d="M387.254,224.024c0,-0 -0.659,0.106 -2.547,1.344c-1.888,1.238 -3.629,2.656 -5.237,4.229c-1.608,1.573 -3.092,3.302 -4.364,5.169c-1.271,1.867 -2.346,3.895 -3.222,5.975c-0.877,2.08 -1.553,4.241 -2.014,6.444c-0.461,2.204 -0.716,4.454 -0.739,6.714c-0.023,2.26 0.176,4.564 0.604,6.78c0.429,2.215 1.094,4.353 1.947,6.444c0.853,2.091 1.906,4.153 3.156,6.042c1.249,1.889 2.7,3.64 4.296,5.236c1.597,1.597 3.36,3.037 5.237,4.296c1.877,1.26 3.894,2.358 5.975,3.223c2.081,0.865 4.231,1.507 6.446,1.946c2.214,0.44 6.78,0.672 6.78,0.672" style="fill:none;fill-rule:nonzero;stroke:#f1ac43;stroke-width:0.7px;"/><path id="_1360" serif:id="1360" d="M370.742,210.398l0.605,-3.491l0.671,-3.625l0.873,-3.692l1.007,-3.759l1.141,-3.76l1.343,-3.692l1.544,-3.558l1.813,-3.423l1.947,-3.155l2.282,-2.954l1.209,-1.343l1.275,-1.275l1.343,-1.141l1.41,-1.142l1.544,-0.939l1.544,-0.873l1.679,-0.739l1.745,-0.604l1.813,-0.537l1.947,-0.335l2.014,-0.269l2.081,-0.067" style="fill:none;fill-rule:nonzero;stroke:#f1ac43;stroke-width:1.5px;"/><path id="_1361" serif:id="1361" d="M403.572,209.727l-2.618,0.134l-2.551,0.269l-2.619,0.537l-2.551,0.738l-2.417,1.007l-2.349,1.141l-2.149,1.41l-1.947,1.678" style="fill:none;fill-rule:nonzero;stroke:#f1ac43;stroke-width:1.5px;"/><path id="_1362" serif:id="1362" d="M370.742,210.398l-0.604,-0.671l-0.47,-0.672l-0.738,-1.611l-0.537,-1.678l-0.336,-1.745" style="fill:none;fill-rule:nonzero;stroke:#f1ac43;stroke-width:1.5px;"/><path id="_1363" serif:id="1363" d="M403.572,149.712l-2.484,0.067l-2.35,0.269l-2.215,0.47l-2.081,0.604l-1.947,0.806l-1.88,0.939l-1.813,1.075l-1.611,1.208l-1.611,1.342l-1.477,1.477l-1.343,1.611l-1.343,1.679l-1.208,1.745l-1.142,1.88l-1.074,1.947l-0.94,2.013l-1.812,4.23l-1.478,4.363l-1.342,4.498l-1.142,4.565l-0.939,4.565l-0.873,4.497l-0.739,4.297l-0.671,4.162" style="fill:none;fill-rule:nonzero;stroke:#f1ac43;stroke-width:1.5px;"/><path id="_1364" serif:id="1364" d="M371.481,206.236l1.477,1.611l1.611,1.477l1.679,1.41l1.812,1.275l1.947,1.074l1.947,0.873l2.081,0.738l2.082,0.403" style="fill:none;fill-rule:nonzero;stroke:#f1ac43;stroke-width:0.7px;"/><path id="_1365" serif:id="1365" d="M384.371,216.641l-1.88,-0.201l-1.88,-0.403l-1.879,-0.537l-1.88,-0.671l-1.679,-0.873l-1.678,-1.007l-1.477,-1.208l-1.276,-1.343" style="fill:none;fill-rule:nonzero;stroke:#f1ac43;stroke-width:1.5px;"/><path id="_1366" serif:id="1366" d="M388.131,212.882l1.745,-0.94l1.813,-0.873l1.88,-0.671l1.947,-0.604l2.014,-0.47l2.014,-0.269l2.014,-0.201l2.014,-0.067" style="fill:none;fill-rule:nonzero;stroke:#f1ac43;stroke-width:1.5px;"/><path id="_1367" serif:id="1367" d="M388.131,212.882l-2.014,-1.007l-1.813,-1.208l-1.813,-1.41l-1.678,-1.477l-3.156,-3.357l-2.886,-3.423" style="fill:none;fill-rule:nonzero;stroke:#f1ac43;stroke-width:1.5px;"/><path id="_1368" serif:id="1368" d="M403.572,167.77l-1.678,0l-1.544,0.202l-1.544,0.268l-1.477,0.336l-1.41,0.47l-1.343,0.537l-2.551,1.342l-2.35,1.612l-2.148,1.946l-2.015,2.149l-1.745,2.349l-1.611,2.484l-1.477,2.685l-1.343,2.752l-1.141,2.82l-1.075,2.887l-0.872,2.819l-0.806,2.819l-0.671,2.753" style="fill:none;fill-rule:nonzero;stroke:#f1ac43;stroke-width:1.5px;"/><path id="_1369" serif:id="1369" d="M403.572,163.474l-2.014,0.067l-1.88,0.269l-1.879,0.335l-1.746,0.537l-1.746,0.605l-1.611,0.738l-1.611,0.873l-1.544,1.007l-1.477,1.074l-1.41,1.208l-1.343,1.276l-1.276,1.409l-2.416,2.954l-2.216,3.222l-1.947,3.491l-1.746,3.625l-1.544,3.759l-1.342,3.827l-1.142,3.826l-0.94,3.827l-0.738,3.692l-0.537,3.625" style="fill:none;fill-rule:nonzero;stroke:#f1ac43;stroke-width:1.5px;"/><path id="_1370" serif:id="1370" d="M371.682,197.509l-0.671,-0.94l-0.47,-1.007l-0.403,-1.074l-0.268,-1.074" style="fill:none;fill-rule:nonzero;stroke:#f1ac43;stroke-width:1.5px;"/><path id="_1371" serif:id="1371" d="M310.52,229.127l0,-12.754l-11.749,-0l0,12.754l11.749,0Z" style="fill:none;fill-rule:nonzero;stroke:#f1ac43;stroke-width:1.5px;"/><path id="_1372" serif:id="1372" d="M298.839,224.63l-85.533,-13.695" style="fill:none;fill-rule:nonzero;stroke:#f1ac43;stroke-width:1.5px;"/><path id="_1373" serif:id="1373" d="M298.839,218.051l-85.063,-9.734" style="fill:none;fill-rule:nonzero;stroke:#f1ac43;stroke-width:1.5px;"/><path id="_1374" serif:id="1374" d="M298.839,221.877l-91.575,-13.023" style="fill:none;fill-rule:nonzero;stroke:#f1ac43;stroke-width:1.5px;"/><path id="_1375" serif:id="1375" d="M213.373,210.935l-0.873,-0.134l-1.007,-0.269l-2.014,-0.537l-0.873,-0.268l-0.738,-0.336l-0.47,-0.268l-0.134,-0.269l0.268,-0.201l0.537,-0.202l0.739,-0.067l0.94,-0.134l2.081,-0.067l1.007,0.067l0.94,0.067" style="fill:none;fill-rule:nonzero;stroke:#f1ac43;stroke-width:1.5px;"/><path id="_1376" serif:id="1376" d="M397.127,45.593l6.445,0" style="fill:none;fill-rule:nonzero;stroke:#f1ac43;stroke-width:1.5px;"/><path id="_1377" serif:id="1377" d="M397.127,25.991l6.445,-0" style="fill:none;fill-rule:nonzero;stroke:#f1ac43;stroke-width:1.5px;"/><path id="_1378" serif:id="1378" d="M397.127,45.593l0,-19.602" style="fill:none;fill-rule:nonzero;stroke:#f1ac43;stroke-width:1.5px;"/><path id="_1379" serif:id="1379" d="M395.784,150.719l5.439,-105.126" style="fill:none;fill-rule:nonzero;stroke:#f1ac43;stroke-width:1.5px;"/><path id="_1380" serif:id="1380" d="M388.131,63.114l12.152,0" style="fill:none;fill-rule:nonzero;stroke:#f1ac43;stroke-width:1.5px;"/><path id="_1381" serif:id="1381" d="M388.131,65.732l12.017,0" style="fill:none;fill-rule:nonzero;stroke:#f1ac43;stroke-width:1.5px;"/><path id="_1382" serif:id="1382" d="M388.131,65.732l-0,-2.618" style="fill:none;fill-rule:nonzero;stroke:#f1ac43;stroke-width:1.5px;"/><path id="_1383" serif:id="1383" d="M403.572,33.174l-1.611,0.604l-0.671,1.611l0.671,1.611l1.611,0.605" style="fill:none;fill-rule:nonzero;stroke:#f1ac43;stroke-width:1.5px;"/><path id="_1384" serif:id="1384" d="M401.223,3.1l-0,22.891" style="fill:none;fill-rule:nonzero;stroke:#f1ac43;stroke-width:1.5px;"/><path id="_1385" serif:id="1385" d="M403.572,0.75l-1.678,0.671l-0.671,1.679" style="fill:none;fill-rule:nonzero;stroke:#f1ac43;stroke-width:1.5px;"/><path id="_1386" serif:id="1386" d="M10.619,273.098l0,12.822" style="fill:none;fill-rule:nonzero;stroke:#f1ac43;stroke-width:1.5px;"/><path id="_1387" serif:id="1387" d="M12.902,273.098l-0,12.822" style="fill:none;fill-rule:nonzero;stroke:#f1ac43;stroke-width:1.5px;"/><path id="_1388" serif:id="1388" d="M264.867,265.445l0,-18.729" style="fill:none;fill-rule:nonzero;stroke:#f1ac43;stroke-width:1.5px;"/><path id="_1389" serif:id="1389" d="M17.937,271.017l0,12.217" style="fill:none;fill-rule:nonzero;stroke:#f1ac43;stroke-width:1.5px;"/><path id="_1390" serif:id="1390" d="M15.184,285.92l1.947,-0.739l0.806,-1.947" style="fill:none;fill-rule:nonzero;stroke:#f1ac43;stroke-width:1.5px;"/><path id="_1391" serif:id="1391" d="M15.184,285.92l-11.681,-0" style="fill:none;fill-rule:nonzero;stroke:#f1ac43;stroke-width:1.5px;"/><path id="_1392" serif:id="1392" d="M0.75,283.234l0,-12.217" style="fill:none;fill-rule:nonzero;stroke:#f1ac43;stroke-width:1.5px;"/><path id="_1393" serif:id="1393" d="M3.503,268.332l11.681,-0" style="fill:none;fill-rule:nonzero;stroke:#f1ac43;stroke-width:1.5px;"/><path id="_1394" serif:id="1394" d="M17.937,271.017l-0.806,-1.88l-1.947,-0.805" style="fill:none;fill-rule:nonzero;stroke:#f1ac43;stroke-width:1.5px;"/><path id="_1395" serif:id="1395" d="M3.503,268.332l-1.947,0.805l-0.806,1.88" style="fill:none;fill-rule:nonzero;stroke:#f1ac43;stroke-width:1.5px;"/><path id="_1396" serif:id="1396" d="M0.75,283.234l0.806,1.947l1.947,0.739" style="fill:none;fill-rule:nonzero;stroke:#f1ac43;stroke-width:1.5px;"/><path id="_1397" serif:id="1397" d="M15.184,273.098l-14.434,-0" style="fill:none;fill-rule:nonzero;stroke:#f1ac43;stroke-width:1.5px;"/><path id="_1398" serif:id="1398" d="M5.651,273.098l-2.417,0.604l-1.813,1.813l-0.671,2.483l0.671,2.484l1.813,1.813l2.417,0.671l2.484,-0.671l1.813,-1.813l0.671,-2.484l-0.671,-2.483l-1.813,-1.813l-2.484,-0.604Z" style="fill:none;fill-rule:nonzero;stroke:#f1ac43;stroke-width:1.5px;"/><path id="_1399" serif:id="1399" d="M17.937,275.783l-0.806,-1.88l-1.947,-0.805" style="fill:none;fill-rule:nonzero;stroke:#f1ac43;stroke-width:1.5px;"/><path id="_1400" serif:id="1400" d="M15.386,276.857l-1.746,0.739l-0.738,1.745l0.738,1.812l1.746,0.739l1.813,-0.739l0.738,-1.812l-0.738,-1.745l-1.813,-0.739Z" style="fill:none;fill-rule:nonzero;stroke:#f1ac43;stroke-width:1.5px;"/><path id="_1401" serif:id="1401" d="M17.937,272.896l246.93,-26.18" style="fill:none;fill-rule:nonzero;stroke:#f1ac43;stroke-width:1.5px;"/><path id="_1402" serif:id="1402" d="M269.231,265.176l-251.294,17.589" style="fill:none;fill-rule:nonzero;stroke:#f1ac43;stroke-width:1.5px;"/><path id="_1403" serif:id="1403" d="M17.937,278.804l220.478,-22.422" style="fill:none;fill-rule:nonzero;stroke:#f1ac43;stroke-width:1.5px;"/><path id="_1404" serif:id="1404" d="M312.602,249.468c-0,-0 -0.672,5.002 -0.672,7.519c0,2.516 0.256,5.038 0.672,7.518c0.415,2.48 0.992,4.947 1.812,7.317c0.821,2.371 1.866,4.646 3.089,6.848c1.223,2.201 2.657,4.335 4.229,6.31c1.573,1.975 3.306,3.821 5.17,5.505c1.864,1.683 3.853,3.216 5.975,4.564c2.122,1.349 4.389,2.526 6.714,3.491c2.325,0.966 4.725,1.721 7.183,2.283c2.459,0.562 5.005,0.918 7.52,1.074c2.514,0.156 5.014,0.134 7.519,-0.135c2.505,-0.268 5.027,-0.78 7.452,-1.476c2.426,-0.697 7.05,-2.686 7.05,-2.686" style="fill:none;fill-rule:nonzero;stroke:#f1ac43;stroke-width:1.5px;"/><path id="_1405" serif:id="1405" d="M382.491,303.843l-19.067,-33.9" style="fill:none;fill-rule:nonzero;stroke:#f1ac43;stroke-width:1.5px;"/><path id="_1406" serif:id="1406" d="M349.863,257.658l-31.89,-14.098" style="fill:none;fill-rule:nonzero;stroke:#f1ac43;stroke-width:1.5px;"/><path id="_1407" serif:id="1407" d="M363.424,269.943c0,-0 -2.252,-3.494 -3.625,-5.035c-1.373,-1.541 -2.9,-2.946 -4.565,-4.162c-1.666,-1.216 -5.371,-3.088 -5.371,-3.088" style="fill:none;fill-rule:nonzero;stroke:#f1ac43;stroke-width:1.5px;"/><path id="_1408" serif:id="1408" d="M382.491,303.843l-2.685,0" style="fill:none;fill-rule:nonzero;stroke:#f1ac43;stroke-width:1.5px;"/><path id="_1409" serif:id="1409" d="M379.806,303.843l-18.396,-32.759" style="fill:none;fill-rule:nonzero;stroke:#f1ac43;stroke-width:1.5px;"/><path id="_1410" serif:id="1410" d="M361.41,271.084c0,-0 -2.096,-3.216 -3.357,-4.632c-1.26,-1.416 -2.632,-2.7 -4.162,-3.827c-1.53,-1.126 -4.968,-2.886 -4.968,-2.886" style="fill:none;fill-rule:nonzero;stroke:#f1ac43;stroke-width:1.5px;"/><path id="_1411" serif:id="1411" d="M348.923,259.739l-30.615,-13.493" style="fill:none;fill-rule:nonzero;stroke:#f1ac43;stroke-width:1.5px;"/><path id="_1412" serif:id="1412" d="M312.602,249.468l5.706,-3.222" style="fill:none;fill-rule:nonzero;stroke:#f1ac43;stroke-width:1.5px;"/><path id="_1413" serif:id="1413" d="M318.308,246.246l-0.335,-2.686" style="fill:none;fill-rule:nonzero;stroke:#f1ac43;stroke-width:1.5px;"/><path id="_1414" serif:id="1414" d="M320.39,295.519c-0,0 4.815,3.275 7.385,4.632c2.569,1.358 5.228,2.536 7.989,3.491c2.761,0.955 5.653,1.701 8.526,2.215c2.874,0.515 5.754,0.805 8.661,0.873c2.907,0.068 5.832,-0.089 8.728,-0.47c2.895,-0.381 5.799,-0.992 8.593,-1.812c2.795,-0.821 8.124,-3.088 8.124,-3.088" style="fill:none;fill-rule:nonzero;stroke:#f1ac43;stroke-width:0.7px;"/><path id="_1415" serif:id="1415" d="M372.555,303.978l-3.491,1.007l-3.76,0.805l-3.894,0.604l-4.095,0.403l-4.163,0.269l-4.296,-0l-4.23,-0.134l-4.162,-0.336l-4.096,-0.537l-3.894,-0.671l-3.759,-0.94l-3.626,-1.074l-3.424,-1.343l-3.29,-1.678l-3.088,-1.947l-2.954,-2.282" style="fill:none;fill-rule:nonzero;stroke:#f1ac43;stroke-width:1.5px;"/><path id="_1416" serif:id="1416" d="M308.372,258.732l-5.17,0.805" style="fill:none;fill-rule:nonzero;stroke:#f1ac43;stroke-width:0.7px;"/><path id="_1417" serif:id="1417" d="M308.372,258.732l-29.54,-9.868" style="fill:none;fill-rule:nonzero;stroke:#f1ac43;stroke-width:0.7px;"/><path id="_1418" serif:id="1418" d="M112.399,276.119l-0,4.162" style="fill:none;fill-rule:nonzero;stroke:#f1ac43;stroke-width:1.5px;"/><path id="_1419" serif:id="1419" d="M112.399,280.281l0.067,1.544l0.067,1.678l0.336,1.611l0.47,1.544l0.336,0.671l0.402,0.605l0.47,0.537l0.538,0.402l0.671,0.336l0.738,0.269l0.739,0.067l0.806,-0l1.611,-0.202l0.738,-0.268l0.605,-0.336l0.604,-0.47l0.47,-0.47l0.805,-1.208l0.538,-1.41l0.335,-1.544l0.47,-3.356" style="fill:none;fill-rule:nonzero;stroke:#f1ac43;stroke-width:1.5px;"/><path id="_1420" serif:id="1420" d="M124.215,280.281l0,-4.968" style="fill:none;fill-rule:nonzero;stroke:#f1ac43;stroke-width:1.5px;"/><path id="_1421" serif:id="1421" d="M234.656,262.693l-0,-9.801" style="fill:none;fill-rule:nonzero;stroke:#f1ac43;stroke-width:1.5px;"/><path id="_1422" serif:id="1422" d="M234.656,262.693l-205.843,17.319" style="fill:none;fill-rule:nonzero;stroke:#f1ac43;stroke-width:1.5px;"/><path id="_1423" serif:id="1423" d="M28.813,274.172l205.843,-21.28" style="fill:none;fill-rule:nonzero;stroke:#f1ac43;stroke-width:1.5px;"/><path id="_1424" serif:id="1424" d="M28.813,280.012l-1.208,-0.134l-1.343,-0.067l-2.753,-0.269l-1.208,-0.201l-0.94,-0.269l-0.336,-0.134l-0.268,-0.201l-0.134,-0.202l-0,-0.201l0.067,-0.201l0.201,-0.269l0.739,-0.537l0.94,-0.537l1.208,-0.604l2.618,-1.141l1.276,-0.47l1.141,-0.403" style="fill:none;fill-rule:nonzero;stroke:#f1ac43;stroke-width:1.5px;"/><path id="_1425" serif:id="1425" d="M131.197,271.42l-1.544,-0.269l-1.678,-0.268l-3.559,-0.672l-1.544,-0.47l-1.208,-0.47l-0.47,-0.201l-0.336,-0.269l-0.201,-0.268l-0.067,-0.269l0.134,-0.335l0.201,-0.269l0.403,-0.335l0.47,-0.336l1.276,-0.604l1.544,-0.672l3.424,-1.141l1.678,-0.537l1.477,-0.403" style="fill:none;fill-rule:nonzero;stroke:#f1ac43;stroke-width:1.5px;"/><path id="_1442" serif:id="1442" d="M297.831,278.535l0,-8.659" style="fill:none;fill-rule:nonzero;stroke:#f1ac43;stroke-width:0.7px;"/><path id="_1443" serif:id="1443" d="M308.372,258.732l-37.597,-3.289" style="fill:none;fill-rule:nonzero;stroke:#f1ac43;stroke-width:0.7px;"/><path id="_1444" serif:id="1444" d="M270.775,255.443l-0.537,-0l-0.201,-0.068l-0.604,0l-0.269,-0.067l-0.671,0l-0.269,-0.067l-1.007,-0l-0.604,-0.067l-0.537,-0l-0.605,-0.067l-0.604,-0l-0.604,-0.067l-1.276,-0l-0.671,-0.068l-2.014,0l-0.671,-0.067l-2.753,0l-1.41,0.067l-1.41,0l-0.671,0.068l-0.672,-0l-0.671,0.067l-0.671,-0" style="fill:none;fill-rule:nonzero;stroke:#f1ac43;stroke-width:0.7px;"/><path id="_1445" serif:id="1445" d="M264.867,246.716l2.484,-0.336l2.35,-0.47l2.35,-0.604l2.35,-0.739l2.282,-0.939l2.283,-1.007l4.431,-2.283l4.364,-2.551l4.162,-2.752l4.096,-2.954l4.028,-2.954" style="fill:none;fill-rule:nonzero;stroke:#f1ac43;stroke-width:1.5px;"/><path id="_1446" serif:id="1446" d="M310.52,221.206l1.88,-1.41l1.947,-1.342l1.88,-1.343l1.007,-0.604l0.94,-0.604l1.007,-0.672l0.94,-0.604l1.007,-0.604l1.007,-0.537l1.007,-0.604l2.014,-1.074l1.007,-0.537l1.007,-0.47l1.075,-0.537l1.074,-0.47l1.007,-0.403l1.074,-0.47l1.074,-0.403l1.142,-0.402l1.074,-0.336l1.074,-0.336l1.141,-0.335l1.142,-0.336l2.282,-0.537l1.142,-0.269l1.141,-0.268l1.141,-0.201" style="fill:none;fill-rule:nonzero;stroke:#f1ac43;stroke-width:1.5px;"/><path id="_1447" serif:id="1447" d="M290.916,261.35l-5.706,-4.632" style="fill:none;fill-rule:nonzero;stroke:#f1ac43;stroke-width:0.7px;"/><path id="_1448" serif:id="1448" d="M285.21,256.718l7.922,-3.088" style="fill:none;fill-rule:nonzero;stroke:#f1ac43;stroke-width:0.7px;"/><path id="_1449" serif:id="1449" d="M383.984,290.584l-12.369,-21.917" style="fill:none;fill-rule:nonzero;stroke:#f1ac43;stroke-width:0.7px;"/><path id="_1450" serif:id="1450" d="M356.375,254.838l-3.827,-1.678" style="fill:none;fill-rule:nonzero;stroke:#f1ac43;stroke-width:0.7px;"/><path id="_1451" serif:id="1451" d="M371.615,268.667c0,0 -2.487,-3.905 -4.028,-5.639c-1.541,-1.733 -3.29,-3.326 -5.17,-4.699c-1.879,-1.373 -6.042,-3.491 -6.042,-3.491" style="fill:none;fill-rule:nonzero;stroke:#f1ac43;stroke-width:0.7px;"/><path id="_1452" serif:id="1452" d="M371.615,268.667l-0.403,-0.738l-0.47,-0.672l-0.47,-0.738l-0.47,-0.671l-0.537,-0.672l-0.537,-0.671l-0.537,-0.671l-0.537,-0.604l-0.537,-0.605l-0.604,-0.671l-1.142,-1.208l-1.208,-1.209l-1.141,-1.208l-1.209,-1.208l-1.208,-1.276l-0.605,-0.604l-0.537,-0.604l-0.604,-0.671l-1.074,-1.343l-0.537,-0.671l-0.537,-0.739l-0.537,-0.671l-0.47,-0.738l-0.47,-0.806l-0.47,-0.738l-0.403,-0.806l-0.403,-0.806l-0.403,-0.872l-0.335,-0.873l-0.336,-0.873l-0.269,-0.872l-0.268,-0.873l-0.202,-0.873l-0.067,-0.402l-0.067,-0.47l-0.067,-0.403l-0.067,-0.47l-0.067,-0.403l-0,-0.403l-0.067,-0.47l-0,-0.402l0.067,-0.403l-0,-0.806l0.067,-0.402l0.067,-0.403l0.067,-0.403l0.134,-0.336l0.067,-0.402l0.134,-0.336l0.135,-0.403l0.201,-0.336l0.134,-0.335l0.202,-0.336l0.201,-0.336l0.202,-0.268l0.201,-0.336l0.269,-0.335l0.268,-0.269l0.202,-0.336l0.335,-0.268l0.269,-0.269l0.268,-0.268l0.336,-0.336l0.269,-0.268l0.671,-0.537l0.671,-0.47l0.739,-0.537l0.738,-0.47l0.739,-0.47l0.805,-0.47l0.739,-0.47l1.678,-0.94" style="fill:none;fill-rule:nonzero;stroke:#f1ac43;stroke-width:0.7px;"/><path id="_1453" serif:id="1453" d="M369.735,209.123l-0.403,0.469l-0.335,0.47l-0.403,0.403l-0.403,0.47l-0.403,0.403l-0.94,0.805l-0.47,0.403l-0.537,0.336l-0.47,0.403l-0.537,0.335l-0.537,0.403l-0.537,0.336l-0.604,0.335l-0.537,0.336l-0.604,0.336" style="fill:none;fill-rule:nonzero;stroke:#f1ac43;stroke-width:0.7px;"/><path id="_1454" serif:id="1454" d="M352.548,253.16l-2.685,-1.343l-2.82,-1.409l-3.088,-1.477l-3.156,-1.477l-6.579,-3.021l-6.445,-3.155l-3.089,-1.544l-2.954,-1.611l-2.685,-1.544l-2.484,-1.544l-2.082,-1.544l-1.745,-1.477l-0.739,-0.738l-0.604,-0.739l-0.47,-0.738l-0.403,-0.672" style="fill:none;fill-rule:nonzero;stroke:#f1ac43;stroke-width:0.7px;"/><path id="_1455" serif:id="1455" d="M293.132,253.63l0.738,-1.678l0.873,-1.611l2.081,-3.156l2.35,-3.02l2.686,-2.753l2.887,-2.416l3.088,-2.216l1.678,-0.94l1.612,-0.872l1.745,-0.739l1.679,-0.671" style="fill:none;fill-rule:nonzero;stroke:#f1ac43;stroke-width:0.7px;"/><path id="_1456" serif:id="1456" d="M330.46,242.621l-0.94,-0.47l-2.014,-1.074l-1.007,-0.537l-1.007,-0.605l-1.074,-0.604l-1.007,-0.671l-1.007,-0.671l-1.007,-0.672l-1.007,-0.671l-0.94,-0.738l-0.94,-0.672l-0.873,-0.738l-0.873,-0.739l-0.403,-0.335l-0.47,-0.336l-0.335,-0.403l-0.806,-0.671l-0.336,-0.403l-0.335,-0.335l-0.336,-0.336l-0.336,-0.403l-0.537,-0.671l-0.268,-0.336l-0.269,-0.335l-0.268,-0.336l-0.403,-0.671l-0.135,-0.336l-0.201,-0.336l-0.134,-0.335l-0.067,-0.269l-0.135,-0.336l-0.067,-0.268l0,-0.336l-0.067,-0.268l-0,-0.537l0.067,-0.336l0,-0.268l0.067,-0.269l0.135,-0.268l0.067,-0.269l0.134,-0.269l0.134,-0.268l0.202,-0.269l0.134,-0.268l0.201,-0.269l0.202,-0.268l0.268,-0.269l0.202,-0.268l0.268,-0.269l0.269,-0.268l0.336,-0.202l0.268,-0.268l1.007,-0.806l0.403,-0.201l0.336,-0.269l0.402,-0.268l0.403,-0.202l0.403,-0.268l0.47,-0.201l0.403,-0.269l0.47,-0.201l0.47,-0.269l0.47,-0.201l0.537,-0.269l0.47,-0.201l0.537,-0.269l0.47,-0.201l1.074,-0.47l1.141,-0.403l1.142,-0.47l1.208,-0.402l1.209,-0.403l1.208,-0.403l1.276,-0.403l1.275,-0.403l1.343,-0.335l1.343,-0.403l1.343,-0.336l1.409,-0.335l1.343,-0.336l1.41,-0.336l1.41,-0.335l1.41,-0.336l1.477,-0.268l1.41,-0.336l1.41,-0.269l1.409,-0.268" style="fill:none;fill-rule:nonzero;stroke:#f1ac43;stroke-width:0.7px;"/><path id="_1457" serif:id="1457" d="M364.566,213.822l-1.074,-0.067l-1.008,-0.068l-1.007,0l-1.074,-0.067" style="fill:none;fill-rule:nonzero;stroke:#f1ac43;stroke-width:0.7px;"/><path id="_1458" serif:id="1458" d="M336.1,222.012l-4.566,-4.162" style="fill:none;fill-rule:nonzero;stroke:#f1ac43;stroke-width:0.7px;"/><path id="_1459" serif:id="1459" d="M336.1,222.012l-3.492,1.611l-1.812,0.94l-1.612,1.007l-1.477,1.141l-1.208,1.275l-0.47,0.672l-0.336,0.738l-0.268,0.738l-0.067,0.806l-0.067,0.806l0.134,0.872l0.403,1.678l0.805,1.813l1.007,1.745l1.142,1.679l1.342,1.611l1.41,1.409l1.41,1.276" style="fill:none;fill-rule:nonzero;stroke:#f1ac43;stroke-width:0.7px;"/><path id="_1460" serif:id="1460" d="M333.817,219.931l-1.947,0.469l-1.947,0.538l-1.947,0.671l-1.88,0.738l-1.745,0.94l-1.545,1.074l-1.275,1.209l-0.47,0.604l-0.403,0.738l-0.336,0.671l-0.201,0.806l-0.067,0.806l-0,0.805l0.336,1.678l0.604,1.746l0.873,1.745l1.007,1.746l1.141,1.611l1.141,1.409" style="fill:none;fill-rule:nonzero;stroke:#f1ac43;stroke-width:0.7px;"/><path id="_1461" serif:id="1461" d="M331.534,217.85l-1.947,0.469l-2.081,0.47l-4.364,1.142l-2.081,0.604l-1.947,0.805l-1.746,0.94l-1.41,1.074l-0.604,0.604l-0.47,0.672l-0.335,0.671l-0.269,0.738l-0.067,0.873l0,0.873l0.134,0.873l0.269,0.939l0.806,1.88l1.141,1.745l1.41,1.544l0.738,0.672l0.806,0.537" style="fill:none;fill-rule:nonzero;stroke:#f1ac43;stroke-width:0.7px;"/><path id="_1468" serif:id="1468" d="M403.572,219.729l-3.759,0.202" style="fill:none;fill-rule:nonzero;stroke:#f1ac43;stroke-width:1.5px;"/><path id="_1469" serif:id="1469" d="M389.944,230.403l1.544,-0.806l1.611,-0.604l1.678,-0.537l1.746,-0.403l3.491,-0.47l3.558,-0.134" style="fill:none;fill-rule:nonzero;stroke:#f1ac43;stroke-width:0.7px;"/><path id="_1470" serif:id="1470" d="M389.944,230.403l-3.693,-5.975" style="fill:none;fill-rule:nonzero;stroke:#f1ac43;stroke-width:0.7px;"/><path id="_1471" serif:id="1471" d="M307.902,236.78l0,-7.653" style="fill:none;fill-rule:nonzero;stroke:#f1ac43;stroke-width:0.7px;"/><path id="_1472" serif:id="1472" d="M352.212,253.026l-2.081,4.699" style="fill:none;fill-rule:nonzero;stroke:#f1ac43;stroke-width:0.7px;"/><path id="_1473" serif:id="1473" d="M327.238,240.942l-2.485,5.572" style="fill:none;fill-rule:nonzero;stroke:#f1ac43;stroke-width:0.7px;"/><path id="_1474" serif:id="1474" d="M382.894,288.739l-6.781,3.827" style="fill:none;fill-rule:nonzero;stroke:#f1ac43;stroke-width:0.7px;"/><path id="_1475" serif:id="1475" d="M365.841,261.216l-5.505,4.296" style="fill:none;fill-rule:nonzero;stroke:#f1ac43;stroke-width:0.7px;"/><path id="_1476" serif:id="1476" d="M383.834,290.417c0,0 4.097,2.214 6.244,3.021c2.146,0.808 4.321,1.407 6.579,1.813c2.258,0.406 6.915,0.604 6.915,0.604" style="fill:none;fill-rule:nonzero;stroke:#f1ac43;stroke-width:0.7px;"/><path id="_1478" serif:id="1478" d="M372.555,303.978l6.244,-2.014" style="fill:none;fill-rule:nonzero;stroke:#f1ac43;stroke-width:1.5px;"/><path id="_1479" serif:id="1479" d="M381.014,301.225l5.573,-1.946l5.572,-1.679l2.82,-0.738l2.82,-0.537l2.886,-0.336l2.887,-0.134" style="fill:none;fill-rule:nonzero;stroke:#f1ac43;stroke-width:1.5px;"/><path id="_1480" serif:id="1480" d="M320.39,289.276l-0,6.848l-11.682,-0l-0,-12.084l7.653,0" style="fill:none;fill-rule:nonzero;stroke:#f1ac43;stroke-width:1.5px;"/><path id="_1481" serif:id="1481" d="M316.361,284.04l4.029,5.236" style="fill:none;fill-rule:nonzero;stroke:#f1ac43;stroke-width:1.5px;"/><path id="_1482" serif:id="1482" d="M300.92,269.876c-0,-0 2.111,5.017 3.424,7.384c1.313,2.367 4.431,6.78 4.431,6.78" style="fill:none;fill-rule:nonzero;stroke:#f1ac43;stroke-width:0.7px;"/><path id="_1483" serif:id="1483" d="M308.708,292.633l-2.082,-2.35l-2.014,-2.551l-3.961,-5.437l-4.028,-5.304l-2.148,-2.483l-2.283,-2.283l-2.417,-2.014l-1.276,-0.94l-1.342,-0.805l-1.343,-0.671l-1.41,-0.672l-2.954,-0.94l-3.021,-0.671l-3.088,-0.336l-3.089,-0.134l-3.021,0.134" style="fill:none;fill-rule:nonzero;stroke:#f1ac43;stroke-width:1.5px;"/><path id="_1484" serif:id="1484" d="M388.399,251.079l-0.402,0.604" style="fill:none;fill-rule:nonzero;stroke:#f1ac43;stroke-width:1.5px;"/><path id="_1485" serif:id="1485" d="M403.572,233.155l-0.402,0l-0,10.338" style="fill:none;fill-rule:nonzero;stroke:#f1ac43;stroke-width:1.5px;"/><path id="_1486" serif:id="1486" d="M403.17,281.153l-0,2.149" style="fill:none;fill-rule:nonzero;stroke:#f1ac43;stroke-width:1.5px;"/><path id="_1487" serif:id="1487" d="M386.251,269.808l-3.693,2.149" style="fill:none;fill-rule:nonzero;stroke:#f1ac43;stroke-width:1.5px;"/><path id="_1488" serif:id="1488" d="M388.399,251.079l-7.25,-4.162" style="fill:none;fill-rule:nonzero;stroke:#f1ac43;stroke-width:1.5px;"/><path id="_1489" serif:id="1489" d="M382.961,272.561l3.626,-2.081" style="fill:none;fill-rule:nonzero;stroke:#f1ac43;stroke-width:1.5px;"/><path id="_1490" serif:id="1490" d="M380.813,247.588l7.184,4.095" style="fill:none;fill-rule:nonzero;stroke:#f1ac43;stroke-width:1.5px;"/><path id="_1491" serif:id="1491" d="M403.572,243.493l-0.402,0" style="fill:none;fill-rule:nonzero;stroke:#f1ac43;stroke-width:1.5px;"/><path id="_1492" serif:id="1492" d="M403.17,281.153l0.402,0" style="fill:none;fill-rule:nonzero;stroke:#f1ac43;stroke-width:1.5px;"/><path id="_1493" serif:id="1493" d="M386.251,269.808l0.336,0.672" style="fill:none;fill-rule:nonzero;stroke:#f1ac43;stroke-width:1.5px;"/><path id="_1494" serif:id="1494" d="M403.572,270.144l-0.402,0.134l-0.202,0.403l0.202,0.403l0.402,0.134l0.336,-0.134l0.201,-0.403l-0.201,-0.403l-0.336,-0.134Z" style="fill:none;fill-rule:nonzero;stroke:#f1ac43;stroke-width:1.5px;"/><path id="_1495" serif:id="1495" d="M367.385,240.875l-1.208,4.028l-0.47,4.229" style="fill:none;fill-rule:nonzero;stroke:#f1ac43;stroke-width:0.7px;"/><path id="_1496" serif:id="1496" d="M365.707,249.132l-6.378,-3.826" style="fill:none;fill-rule:nonzero;stroke:#f1ac43;stroke-width:0.7px;"/><path id="_1497" serif:id="1497" d="M359.329,245.306l-2.753,-3.759" style="fill:none;fill-rule:nonzero;stroke:#f1ac43;stroke-width:0.7px;"/><path id="_1498" serif:id="1498" d="M356.576,241.547l0.47,-3.424" style="fill:none;fill-rule:nonzero;stroke:#f1ac43;stroke-width:0.7px;"/><path id="_1499" serif:id="1499" d="M357.046,238.123l10.339,2.752" style="fill:none;fill-rule:nonzero;stroke:#f1ac43;stroke-width:0.7px;"/><path id="_1500" serif:id="1500" d="M346.64,238.257l-6.982,-2.551" style="fill:none;fill-rule:nonzero;stroke:#f1ac43;stroke-width:0.7px;"/><path id="_1501" serif:id="1501" d="M347.446,235.706l-6.982,-2.484" style="fill:none;fill-rule:nonzero;stroke:#f1ac43;stroke-width:0.7px;"/><path id="_1502" serif:id="1502" d="M346.64,238.257l0.537,0.067l0.537,-0.134l0.47,-0.269l0.269,-0.402l-0,-0.537l-0.202,-0.537l-0.402,-0.403l-0.403,-0.336" style="fill:none;fill-rule:nonzero;stroke:#f1ac43;stroke-width:0.7px;"/><path id="_1503" serif:id="1503" d="M339.658,235.706l-0.47,-0.268l-0.403,-0.47l-0.268,-0.537l-0,-0.537l0.268,-0.403l0.537,-0.269l0.604,-0.067l0.538,0.067" style="fill:none;fill-rule:nonzero;stroke:#f1ac43;stroke-width:0.7px;"/><path id="_1504" serif:id="1504" d="M219.617,208.988l-0.336,2.887" style="fill:none;fill-rule:nonzero;stroke:#f1ac43;stroke-width:1.5px;"/><path id="_1505" serif:id="1505" d="M248.553,252.086l-0,8.66" style="fill:none;fill-rule:nonzero;stroke:#f1ac43;stroke-width:1.5px;"/><path id="_1506" serif:id="1506" d="M238.415,261.35l0,-8.123" style="fill:none;fill-rule:nonzero;stroke:#f1ac43;stroke-width:1.5px;"/><path id="_1507" serif:id="1507" d="M248.553,252.086l-10.138,1.141" style="fill:none;fill-rule:nonzero;stroke:#f1ac43;stroke-width:1.5px;"/><path id="_1508" serif:id="1508" d="M248.553,260.746l-10.138,0.604" style="fill:none;fill-rule:nonzero;stroke:#f1ac43;stroke-width:1.5px;"/><path id="_1509" serif:id="1509" d="M251.373,255.107l-2.82,0.201" style="fill:none;fill-rule:nonzero;stroke:#f1ac43;stroke-width:1.5px;"/><path id="_1511" serif:id="1511" d="M294.408,260.813l-16.046,2.417" style="fill:none;fill-rule:nonzero;stroke:#f1ac43;stroke-width:0.7px;"/><path id="_1512" serif:id="1512" d="M304.142,260.544l0.739,5.908" style="fill:none;fill-rule:nonzero;stroke:#f1ac43;stroke-width:1.5px;"/><path id="_1513" serif:id="1513" d="M368.393,222.079l0.604,-0.403l0.604,-0.403l0.537,-0.403l0.604,-0.402l0.537,-0.47l0.538,-0.403l0.469,-0.47l0.538,-0.47l0.47,-0.47l0.402,-0.537l0.47,-0.47l0.336,-0.537l0.403,-0.537l0.336,-0.604l0.268,-0.604l0.269,-0.604" style="fill:none;fill-rule:nonzero;stroke:#f1ac43;stroke-width:0.7px;"/><path id="_1514" serif:id="1514" d="M355.838,218.252l-1.141,0.537l-1.209,0.47l-2.417,0.873l-2.35,0.873l-1.208,0.47l-1.141,0.402l-1.142,0.47l-2.282,0.806l-1.075,0.47l-1.074,0.403l-1.007,0.402l-1.007,0.47l-0.47,0.202l-0.47,0.201l-0.47,0.269l-0.403,0.201l-0.47,0.201l-0.402,0.269l-0.403,0.201l-0.403,0.202l-0.403,0.268l-0.336,0.202l-0.402,0.268l-0.336,0.269l-0.336,0.201l-0.268,0.268l-0.336,0.202l-0.269,0.268l-0.201,0.269l-0.268,0.268l-0.806,1.075l-0.134,0.268l-0.135,0.269l-0.067,0.268l-0.067,0.336l-0.067,0.268l-0.067,0.336l-0,0.94l0.067,0.268l0.134,0.672l0.134,0.335l0.068,0.336l0.134,0.335l0.201,0.336l0.135,0.336l0.201,0.335l0.201,0.336l0.269,0.403l0.201,0.336l0.269,0.335l0.268,0.336l0.269,0.403l0.336,0.335l0.268,0.403l0.336,0.336l0.336,0.403l0.335,0.335l0.403,0.336l0.336,0.403l0.403,0.335l0.805,0.806l0.806,0.738l0.873,0.739l0.94,0.738l0.94,0.739l0.939,0.671l1.007,0.738l0.94,0.739l1.075,0.738l1.007,0.671l1.007,0.672l1.074,0.671l1.074,0.671l1.007,0.672l1.074,0.604l1.007,0.671l1.007,0.604l1.075,0.537l0.94,0.605l1.007,0.537l0.94,0.469l0.939,0.47" style="fill:none;fill-rule:nonzero;stroke:#f1ac43;stroke-width:0.7px;"/><path id="_1515" serif:id="1515" d="M351.81,214.023l-1.343,0.067l-1.343,0.202l-1.343,0.134l-1.342,0.201l-1.343,0.202l-1.343,0.201l-1.41,0.201l-1.342,0.269l-1.41,0.269l-1.343,0.268l-1.41,0.269l-1.41,0.335l-1.41,0.269l-1.477,0.335l-1.41,0.336l-1.477,0.336l-2.886,0.671l-1.477,0.403l-1.41,0.335l-1.41,0.403l-1.41,0.403l-1.343,0.403l-0.604,0.201l-0.671,0.202l-0.605,0.201l-0.604,0.201l-0.604,0.202l-0.537,0.201l-0.604,0.202l-0.538,0.201l-0.47,0.201l-0.469,0.202l-0.47,0.201l-0.47,0.269l-0.403,0.201l-0.403,0.201l-0.336,0.202l-0.335,0.268l-0.336,0.202l-0.269,0.201" style="fill:none;fill-rule:nonzero;stroke:#f1ac43;stroke-width:0.7px;"/><path id="_1516" serif:id="1516" d="M355.032,207.981l1.88,-0.268l0.873,-0.134l0.94,-0.135l0.873,-0.134l0.872,-0.067l0.873,-0.134l0.873,-0.067l0.873,-0.135l0.805,-0.067l1.612,-0.134l0.805,-0.134l0.806,-0l1.477,-0.135" style="fill:none;fill-rule:nonzero;stroke:#f1ac43;stroke-width:0.7px;"/><path id="_1517" serif:id="1517" d="M351.675,204.356l1.007,-0.067l1.008,-0.067l2.081,-0.134l2.014,-0.134l2.081,-0.068l4.095,0l2.082,0.068l2.014,0.067" style="fill:none;fill-rule:nonzero;stroke:#f1ac43;stroke-width:1.5px;"/><path id="path10592" d="M399.735,219.886l-2.966,0.147" style="fill:none;fill-rule:nonzero;stroke:#f1ac43;stroke-width:1.5px;stroke-linecap:butt;stroke-linejoin:miter;"/><path id="path10598" d="M403.832,45.714l-0,103.928" style="fill:none;fill-rule:nonzero;"/><path id="path10600" d="M403.689,149.642l-0,-103.393" style="fill:none;fill-rule:nonzero;stroke:#f1ac43;stroke-width:0.7px;stroke-linecap:butt;stroke-linejoin:miter;"/><path id="path10602" d="M403.689,26.106l-0,-22.5" style="fill:none;fill-rule:nonzero;stroke:#f1ac43;stroke-width:0.7px;stroke-linecap:butt;stroke-linejoin:miter;"/></g></g><g id="text20019"></g></g></svg>