<?xml version="1.0" encoding="UTF-8" standalone="no"?>
<!DOCTYPE svg PUBLIC "-//W3C//DTD SVG 1.1//EN" "http://www.w3.org/Graphics/SVG/1.1/DTD/svg11.dtd"><svg width="100%"
    height="100%" viewBox="0 0 235 363" version="1.1" xmlns="http://www.w3.org/2000/svg"
    xmlns:xlink="http://www.w3.org/1999/xlink" xml:space="preserve" xmlns:serif="http://www.serif.com/"
    style="fill-rule:evenodd;clip-rule:evenodd;">
    <g id="layer6">
        <path id="path21956"
            d="M119.502,360.322l-0.118,-16.874c0.69,-0.222 1.869,-0.948 1.867,-1.263l-0.049,-7.009l17.187,-0.12l1.791,-12.022l5.089,-0.036l0.849,-18.979l80.98,-9.346l0.033,4.672c0.006,0.901 2.865,2.947 3.682,2.942l0.695,-0.005c0.274,-0.002 0.721,-0.66 0.72,-0.826l-0.478,-68.405c-0.419,0.088 -0.791,0.229 -1.102,0.418c-2.161,1.317 -3.951,3.943 -3.943,5.016l0.103,14.71l1.2,-0.008l0.034,4.924l-75.118,-88.371c-1.006,-1.14 -1.827,-6.485 -1.835,-9.583l16.946,3.669l-0.09,-12.879l-24.187,-27.989l-0.019,-2.652l-4.323,-4.263c0,-0 -5.056,-16.295 -7.515,-27.475c-2.46,-11.179 -5.401,-34.196 -7.907,-47.17c-2.505,-12.975 -8.608,-39.337 -8.708,-39.336c-0.1,0 -5.835,26.445 -8.159,39.453c-2.324,13.009 -4.943,36.064 -7.246,47.277c-2.302,11.213 -7.131,27.577 -7.131,27.577l-4.263,4.323l0.019,2.652l-23.794,28.325l0.09,12.879l16.893,-3.906c0.036,3.098 -0.711,8.454 -1.7,9.608l-73.876,89.412l-0.034,-4.924l1.199,-0.008l-0.103,-14.71c-0.006,-1.073 -1.833,-3.674 -4.012,-4.96c-0.313,-0.185 -0.687,-0.32 -1.107,-0.402l0.478,68.404c0.001,0.166 0.457,0.818 0.731,0.816l0.695,-0.005c0.817,-0.006 3.647,-2.092 3.641,-2.993l-0.033,-4.672l81.103,8.213l1.115,18.966l5.089,-0.036l1.959,11.996l17.187,-0.121l0.049,7.009c0.002,0.315 1.191,1.025 1.884,1.237l0.117,16.875l3.425,-0.024l0,-0.001Z"
            style="fill:#f1ac43;stroke:none;stroke-width:1px;" />
    </g>
</svg>