<?xml version="1.0" encoding="UTF-8" standalone="no"?><!DOCTYPE svg PUBLIC "-//W3C//DTD SVG 1.1//EN" "http://www.w3.org/Graphics/SVG/1.1/DTD/svg11.dtd"><svg width="100%" height="100%" viewBox="0 0 151 114" version="1.1" xmlns="http://www.w3.org/2000/svg" xmlns:xlink="http://www.w3.org/1999/xlink" xml:space="preserve" xmlns:serif="http://www.serif.com/" style="fill-rule:evenodd;clip-rule:evenodd;stroke-linecap:round;stroke-miterlimit:1.5;"><g><rect x="4.507" y="0" width="141.61" height="113.386" style="fill:none;"/><path d="M4.507,56.693c-0,-0 49.606,-28.347 70.866,-28.347c15.645,0 28.347,12.702 28.347,28.347c-0,15.645 -12.702,28.346 -28.347,28.346c-21.26,0 -70.866,-28.346 -70.866,-28.346Z" style="fill:none;stroke:#f1ac43;stroke-width:5px;"/><path d="M146.117,56.693c0,-0 -49.606,28.346 -70.866,28.346c-15.645,0 -28.346,-12.701 -28.346,-28.346c-0,-15.645 12.701,-28.347 28.346,-28.347c21.26,0 70.866,28.347 70.866,28.347Z" style="fill:none;stroke:#f1ac43;stroke-width:5px;"/><circle cx="75.312" cy="56.693" r="7.087" style="fill:#f1ac43;"/></g></svg>