<?xml version="1.0" encoding="UTF-8" standalone="no"?><!DOCTYPE svg PUBLIC "-//W3C//DTD SVG 1.1//EN" "http://www.w3.org/Graphics/SVG/1.1/DTD/svg11.dtd"><svg width="100%" height="100%" viewBox="0 0 284 23" version="1.1" xmlns="http://www.w3.org/2000/svg" xmlns:xlink="http://www.w3.org/1999/xlink" xml:space="preserve" xmlns:serif="http://www.serif.com/" style="fill-rule:evenodd;clip-rule:evenodd;stroke-linejoin:round;stroke-miterlimit:2;"><path d="M0,22.677l0,-22.677l70.992,0l-0,8.504l42.52,-0l-0,2.835l42.508,-0c-0,-1.565 1.27,-2.835 2.834,-2.835l22.677,-0c1.565,-0 2.835,1.27 2.835,2.835l56.579,-0c-0,-1.565 1.27,-2.835 2.835,-2.835l36.85,-0c1.564,-0 2.835,1.27 2.835,2.835l-0,5.669c-0,1.564 -1.271,2.835 -2.835,2.835l-36.85,-0c-1.565,-0 -2.835,-1.271 -2.835,-2.835l-56.579,-0c0,1.564 -1.27,2.835 -2.835,2.835l-22.677,-0c-1.564,-0 -2.834,-1.271 -2.834,-2.835l-42.508,-0l-0,2.835l-42.52,-0l-0,2.834l-70.992,0Z" style="fill:#f1ac43;"/></svg>