<?xml version="1.0" encoding="UTF-8" standalone="no"?><!DOCTYPE svg PUBLIC "-//W3C//DTD SVG 1.1//EN" "http://www.w3.org/Graphics/SVG/1.1/DTD/svg11.dtd"><svg width="100%" height="100%" viewBox="0 0 284 43" version="1.1" xmlns="http://www.w3.org/2000/svg" xmlns:xlink="http://www.w3.org/1999/xlink" xml:space="preserve" xmlns:serif="http://www.serif.com/" style="fill-rule:evenodd;clip-rule:evenodd;stroke-linejoin:round;stroke-miterlimit:2;"><path d="M0,24.094l0,-5.669l5.669,0l0,-18.425l28.347,0l7.792,11.688c25.154,-2.827 61.288,-4.601 101.412,-4.601l55.205,-0l0,0.001c42.758,0.115 77.772,5.671 81.933,12.755l3.107,-0l-0,2.834l-3.107,0c-4.161,7.084 -39.175,12.64 -81.933,12.754l0,0.002l-55.205,0c-40.124,0 -76.258,-1.774 -101.412,-4.602l-7.792,11.689l-28.347,-0l0,-18.426l-5.669,0Z" style="fill:#f1ac43;"/></svg>